<?xml version="1.0" standalone="no"?>
<!DOCTYPE svg PUBLIC "-//W3C//DTD SVG 20010904//EN"
 "http://www.w3.org/TR/2001/REC-SVG-20010904/DTD/svg10.dtd">
<svg version="1.0" xmlns="http://www.w3.org/2000/svg"
 width="1920.000000pt" height="1080.000000pt" viewBox="0 0 1920.000000 1080.000000"
 preserveAspectRatio="xMidYMid meet">
<metadata>
Created by potrace 1.12, written by Peter Selinger 2001-2015
</metadata>
<g transform="translate(0.000000,1080.000000) scale(0.100000,-0.100000)"
fill="#000000" stroke="none">
<path d="M18493 6344 c-8 -4 -10 -18 -7 -42 10 -74 8 -102 -7 -102 -8 0 -10
14 -6 45 5 36 4 43 -8 39 -10 -4 -13 -14 -9 -29 3 -13 1 -26 -5 -29 -7 -5 -8
-1 -4 10 9 24 -14 9 -28 -18 -10 -18 -9 -20 5 -15 9 4 16 2 16 -4 0 -18 26
-38 45 -35 10 1 22 11 26 22 7 17 8 18 8 1 1 -10 6 -15 11 -12 6 3 10 2 10 -3
0 -5 14 -8 30 -7 17 1 35 -4 41 -11 6 -7 17 -10 25 -7 10 4 14 -3 15 -23 0
-27 1 -27 9 -8 5 12 14 25 21 30 9 5 10 2 6 -9 -4 -11 -2 -14 7 -11 8 3 17 1
21 -5 10 -18 25 -12 25 9 l0 21 22 -21 c14 -13 25 -17 32 -10 6 6 14 3 22 -8
12 -15 15 -15 24 -2 8 13 10 12 10 -3 0 -13 6 -17 23 -15 12 2 25 7 29 12 12
17 38 15 38 -2 0 -13 5 -11 20 8 20 24 21 25 35 6 8 -11 15 -14 15 -8 0 7 5
12 11 12 5 0 8 -4 4 -9 -3 -5 -1 -12 4 -15 5 -3 12 4 16 17 4 14 8 17 12 9 3
-9 9 -10 18 -2 9 8 14 6 19 -5 3 -8 12 -15 19 -15 8 0 20 -7 27 -15 15 -18 30
-10 30 17 0 14 5 18 15 14 12 -4 15 4 15 43 0 34 -5 51 -15 55 -9 3 -15 17
-14 38 1 21 3 26 6 13 10 -42 23 -38 23 6 0 34 -5 47 -20 57 -17 10 -21 10
-27 -4 -4 -11 -8 -12 -13 -4 -6 9 -13 9 -30 0 -12 -6 -28 -9 -35 -6 -8 3 -15
1 -17 -4 -2 -6 -9 -6 -17 0 -12 7 -12 11 -2 24 16 19 1 22 -17 4 -9 -9 -12 -9
-12 3 0 12 -2 12 -10 -1 -5 -8 -10 -10 -10 -5 0 6 -7 -1 -15 -15 l-14 -25 -1
23 c0 13 -4 20 -10 17 -5 -3 -10 -2 -10 4 0 10 -19 9 -37 -2 -8 -5 -13 -3 -13
4 0 8 -4 8 -13 1 -8 -7 -18 -7 -27 -2 -20 13 -33 12 -25 0 4 -6 1 -17 -5 -25
-7 -8 -10 -22 -6 -30 4 -13 2 -14 -14 -5 -27 15 -30 13 -30 -20 0 -16 -5 -30
-10 -30 -6 0 -8 10 -4 24 8 33 -2 49 -25 36 -12 -6 -22 -5 -29 2 -9 9 -12 7
-13 -7 -1 -12 -4 -8 -8 9 -8 39 -27 34 -23 -6 4 -30 3 -30 -14 -14 -14 15 -15
22 -6 37 16 26 15 34 -3 19 -12 -10 -15 -10 -15 1 -1 8 -7 3 -15 -11 l-14 -25
-2 25 c-1 17 -3 20 -6 8 -5 -20 -18 -23 -28 -8 -4 6 -11 8 -16 4 -5 -3 -9 -2
-8 3 4 25 -4 24 -17 -2 l-14 -30 5 28 c3 15 4 27 3 26 -2 0 -8 -3 -15 -5z"/>
<path d="M8329 6303 c-1 -2 -2 -6 -3 -10 -1 -5 -5 -14 -10 -22 -14 -21 14 -31
41 -14 16 10 23 12 23 4 0 -7 5 -9 12 -5 7 5 9 2 6 -7 -4 -11 3 -15 28 -14 37
0 41 4 22 23 -17 17 2 15 21 -2 9 -8 33 -17 54 -21 33 -7 37 -5 37 14 0 11 4
21 10 21 6 0 8 -16 6 -37 -3 -21 -2 -30 0 -20 4 13 13 16 36 12 24 -5 29 -3
25 10 -8 20 2 19 25 -2 17 -15 18 -15 18 7 0 23 0 23 18 3 18 -22 50 -22 63
-1 7 11 11 10 18 -2 5 -8 7 -18 5 -22 -3 -4 0 -8 6 -8 6 0 8 -5 5 -11 -4 -6
-9 -27 -11 -47 -5 -57 -7 -61 -16 -56 -11 7 -10 34 2 34 6 0 10 10 10 23 -1
22 -1 22 -16 2 -16 -20 -16 -19 -9 4 5 16 4 21 -4 16 -7 -4 -18 -1 -26 5 -8 7
-22 10 -30 6 -9 -3 -13 -2 -10 4 9 15 -2 12 -30 -6 -15 -10 -25 -26 -25 -41 0
-13 -4 -22 -9 -19 -8 5 -26 -42 -19 -50 7 -6 24 11 36 36 12 24 12 24 7 -8 -3
-20 -1 -31 5 -27 6 3 10 1 10 -5 0 -7 -7 -10 -15 -7 -11 5 -13 -1 -10 -26 l5
-32 -12 31 c-9 21 -19 30 -30 28 -13 -1 -18 5 -18 22 0 13 5 24 10 24 6 0 10
15 9 33 0 27 -2 29 -9 12 -9 -20 -15 -7 -11 23 1 6 -3 12 -8 12 -15 0 -27 -73
-12 -78 19 -6 13 -38 -8 -39 -17 -1 -18 4 -15 55 4 50 2 54 -10 36 -8 -10 -19
-19 -25 -19 -6 0 -11 -3 -11 -7 0 -5 0 -13 0 -19 0 -9 4 -9 13 0 11 9 14 5 15
-18 0 -17 -5 -32 -14 -35 -8 -3 -12 -2 -9 3 10 17 -18 24 -30 8 -7 -10 -24
-17 -38 -17 -14 0 -28 -5 -30 -10 -3 -6 -4 -5 -3 2 5 21 -14 49 -32 47 -32 -3
-42 1 -42 16 0 8 -7 15 -15 15 -19 0 -20 -26 -1 -33 7 -3 16 -20 19 -39 10
-69 -60 -93 -107 -37 -14 17 -27 34 -27 37 -7 41 -6 63 3 68 8 5 9 1 4 -11 -5
-15 -4 -16 9 -5 16 14 20 46 6 54 -15 10 -60 -33 -54 -52 2 -10 -3 -25 -13
-33 -15 -12 -16 -11 -9 20 5 23 4 31 -4 27 -6 -4 -11 -14 -11 -23 0 -13 -9
-15 -47 -10 -26 3 -52 12 -58 21 -7 9 -15 13 -18 9 -4 -3 -7 4 -7 17 0 19 -2
21 -15 10 -13 -11 -14 -10 -9 3 4 12 0 15 -15 14 -21 -1 -35 -22 -25 -38 3 -5
1 -9 -4 -9 -9 0 -25 37 -23 53 2 12 -27 8 -42 -8 -17 -17 -32 -8 -16 11 14 17
-27 30 -46 14 -10 -8 -17 -7 -27 4 -11 12 -17 10 -45 -17 -31 -29 -33 -29 -33
-10 0 33 -19 38 -46 12 -13 -12 -24 -18 -24 -13 0 5 -11 9 -24 9 -13 0 -22 -3
-19 -7 2 -5 -1 -8 -6 -8 -6 0 -11 -8 -11 -17 -1 -14 -4 -12 -14 6 l-14 25 -13
-21 c-12 -20 -14 -20 -25 -5 -12 15 -14 13 -20 -15 -3 -18 -11 -33 -16 -33 -6
0 -7 11 -4 25 6 22 4 24 -16 21 -13 -3 -23 -5 -23 -6 0 -1 -31 -3 -70 -5 -63
-2 -89 -7 -120 -23 -5 -3 -4 1 3 10 10 13 10 17 -4 22 -23 9 -24 8 -25 -16 0
-13 -3 -17 -6 -10 -2 6 -18 12 -34 12 -16 0 -29 3 -29 8 0 4 -11 8 -25 8 -14
1 -25 -2 -25 -7 0 -5 -12 -4 -26 1 -16 7 -23 7 -19 0 3 -6 1 -10 -4 -10 -6 0
-11 7 -11 16 0 11 -6 14 -22 8 -13 -3 -25 -11 -26 -16 -2 -5 -10 -4 -18 3 -15
13 -84 20 -84 9 0 -4 -7 -7 -15 -7 -8 0 -15 4 -15 9 0 10 -29 6 -49 -6 -11 -7
-13 -5 -7 10 4 10 4 16 1 12 -4 -3 -19 -3 -35 2 -18 5 -32 4 -39 -3 -7 -7 -15
-12 -19 -13 -4 0 -15 -4 -25 -8 -10 -5 -23 -4 -30 2 -9 8 -20 7 -39 -3 -20
-10 -28 -10 -31 -2 -3 9 -9 8 -22 -3 -14 -12 -19 -12 -23 -2 -3 10 -9 10 -28
-3 -18 -11 -24 -12 -24 -3 -1 8 -6 5 -15 -6 -12 -16 -15 -17 -20 -4 -8 20 -34
17 -50 -5 -11 -15 -13 -15 -28 1 -9 9 -17 12 -17 6 0 -5 -16 -9 -35 -8 -19 1
-35 -3 -35 -9 0 -6 -3 -8 -6 -5 -3 4 -19 2 -36 -3 -19 -5 -36 -5 -43 1 -9 7
-43 7 -52 0 -2 -2 -8 -3 -13 -4 -6 0 -14 -5 -18 -11 -4 -5 -17 -16 -30 -23
-20 -11 -23 -10 -30 9 -7 18 -10 19 -21 5 -7 -8 -20 -12 -28 -9 -11 4 -14 2
-9 -5 9 -15 -2 -52 -15 -52 -6 0 -8 8 -4 19 3 11 -1 24 -12 32 -11 9 -14 10
-9 2 5 -9 1 -13 -11 -13 -11 0 -25 6 -32 13 -10 10 -12 9 -9 -2 2 -7 -3 -16
-9 -18 -8 -3 -13 4 -14 19 0 13 -3 17 -6 10 -4 -10 -10 -10 -28 2 -20 13 -25
13 -35 1 -7 -8 -16 -12 -21 -9 -5 3 -9 -1 -9 -8 0 -10 -2 -10 -9 1 -6 9 -11
10 -15 2 -4 -6 2 -16 12 -22 16 -10 18 -17 9 -46 -13 -43 -22 -42 -22 4 0 42
-21 55 -34 21 -7 -17 -10 -18 -10 -5 -1 23 -42 63 -60 59 -8 -2 -20 3 -27 12
-10 15 -12 15 -18 1 -7 -20 -35 -19 -43 1 -6 15 -7 15 -19 -1 -12 -16 -14 -16
-36 -1 -29 20 -39 20 -31 0 5 -13 2 -15 -15 -9 -14 4 -22 2 -22 -5 0 -7 -8 -9
-21 -5 -17 6 -20 3 -19 -17 1 -12 1 -26 0 -30 -1 -5 -3 -13 -4 -20 0 -6 -7
-13 -14 -16 -11 -3 -12 0 -3 16 13 25 15 85 2 77 -5 -3 -17 5 -25 17 -9 12
-16 17 -16 11 0 -6 -9 -13 -21 -16 -11 -3 -23 -15 -26 -26 -3 -12 -9 -21 -15
-21 -5 0 -4 8 2 19 15 28 13 33 -9 21 -11 -5 -31 -10 -46 -10 -14 0 -24 -4
-21 -9 4 -5 -3 -7 -14 -4 -25 7 -38 -22 -21 -49 10 -16 10 -19 -1 -16 -7 3
-14 17 -16 31 -3 24 -6 26 -24 16 -13 -7 -18 -7 -14 -1 3 6 2 13 -4 17 -5 3
-15 -5 -22 -19 -15 -34 -28 -33 -29 2 l-1 27 -12 -27 c-11 -27 -13 -27 -35
-12 -25 18 -92 31 -90 17 1 -4 0 -21 -1 -38 l-2 -30 -8 27 c-11 37 -31 56 -52
50 -10 -2 -18 1 -18 8 0 9 -3 10 -14 1 -9 -8 -22 -8 -37 -2 -13 4 -34 5 -46 0
-16 -6 -23 -5 -23 4 0 7 -5 4 -11 -6 -8 -14 -14 -15 -24 -7 -16 13 -57 22 -50
11 3 -5 -2 -12 -11 -15 -26 -10 -34 -7 -34 12 -1 16 -1 16 -14 0 -13 -18 -48
-15 -73 5 -9 6 -13 6 -13 -2 0 -6 -4 -11 -10 -11 -5 0 -10 17 -9 38 0 34 1 35
11 15 6 -13 15 -23 20 -23 5 0 6 5 3 11 -4 6 3 5 15 -3 19 -11 23 -10 40 10
20 24 31 29 27 11 -1 -6 4 -14 11 -16 6 -3 12 0 12 5 0 7 11 8 30 2 24 -7 30
-5 35 11 9 28 35 24 35 -6 0 -27 6 -30 29 -16 8 5 11 16 8 24 -4 11 0 13 15 9
20 -5 20 -2 16 51 -4 43 -1 57 9 57 7 0 13 8 13 18 0 9 -4 13 -8 7 -10 -14
-36 -12 -55 3 -13 11 -16 9 -22 -18 -7 -30 -8 -31 -26 -14 -18 17 -19 16 -19
-22 0 -25 -3 -34 -9 -26 -6 10 -11 2 -16 -25 l-8 -38 -7 30 c-12 49 -11 65 5
65 19 0 19 17 1 36 -13 12 -15 11 -19 -8 -3 -22 -4 -21 -17 7 l-13 30 -7 -30
c-4 -16 -8 -23 -10 -15 -1 11 -4 9 -9 -5 -8 -19 -8 -19 -15 3 -4 12 -12 20
-17 16 -5 -3 -7 -14 -4 -25 4 -10 2 -19 -4 -19 -5 0 -12 -15 -14 -32 -3 -22
-4 -17 -4 14 1 58 -7 69 -21 29 -6 -17 -16 -31 -22 -31 -8 0 -7 6 1 21 8 15 8
24 0 32 -8 8 -11 6 -11 -7 0 -16 -4 -15 -27 8 -18 18 -29 23 -34 15 -4 -6 -12
-8 -18 -5 -6 4 -11 3 -11 -1 0 -5 -9 -9 -20 -9 -11 0 -20 3 -20 6 0 4 -7 7
-15 7 -11 0 -14 -7 -10 -21 6 -20 5 -20 -8 -3 -14 17 -16 17 -43 -10 -15 -15
-27 -29 -26 -30 1 -2 -1 -3 -5 -4 -18 -2 -12 20 7 26 11 3 17 11 14 17 -4 6
-10 6 -16 0 -7 -7 -16 -6 -26 4 -11 12 -17 12 -22 4 -6 -9 -9 -9 -13 1 -4 12
-7 11 -16 -1 -9 -12 -11 -11 -11 8 0 12 -5 22 -11 22 -6 0 -9 -8 -6 -19 4 -16
0 -18 -29 -14 -21 3 -34 0 -34 -6 0 -6 -3 -10 -7 -10 -24 4 -35 -2 -27 -13 5
-7 6 -40 3 -73 -6 -59 -13 -50 -9 11 1 31 -20 51 -41 38 -5 -3 -12 2 -15 10
-9 23 -23 20 -34 -6 -6 -17 -9 -18 -9 -6 -1 12 -9 16 -31 16 -23 -1 -29 -5
-25 -15 3 -8 5 -17 5 -19 0 -3 5 -2 11 2 6 3 3 -5 -6 -20 -18 -28 -30 -32 -40
-16 -3 6 -2 10 2 10 5 0 10 14 11 32 2 18 7 35 13 39 7 4 4 9 -6 13 -23 8 -27
8 -20 -3 3 -5 1 -12 -4 -15 -5 -4 -12 2 -14 11 -4 17 -5 17 -6 0 0 -10 -5 -16
-10 -13 -5 3 -20 0 -34 -7 -19 -10 -23 -17 -16 -28 15 -24 10 -34 -7 -13 -14
17 -15 17 -10 1 3 -10 6 -28 6 -40 0 -16 3 -18 12 -9 9 9 16 5 30 -18 19 -32
25 -56 8 -30 -9 13 -12 13 -24 -2 -7 -10 -16 -15 -19 -11 -4 3 -7 1 -7 -6 0
-7 -5 -9 -10 -6 -6 4 -4 12 6 22 9 10 12 18 6 22 -6 3 -12 22 -14 41 -2 21 -8
34 -15 33 -7 -2 -10 4 -7 12 3 8 -2 24 -11 37 l-17 23 4 -27 c3 -16 1 -26 -6
-25 -6 1 -10 -6 -10 -15 1 -10 -2 -18 -7 -18 -5 0 -9 -9 -9 -19 0 -14 6 -19
18 -16 13 2 18 -4 20 -21 2 -24 1 -24 -28 -9 -33 17 -44 8 -34 -31 5 -19 4
-25 -5 -20 -6 4 -11 14 -11 22 0 8 -4 14 -10 14 -5 0 -7 -21 -3 -52 5 -37 3
-49 -5 -44 -7 4 -12 2 -12 -3 0 -6 -5 -11 -11 -11 -8 0 -7 6 2 17 13 15 20
113 8 113 -3 0 -15 -9 -26 -20 -16 -14 -22 -16 -26 -6 -3 7 -14 16 -25 18 -15
4 -19 2 -15 -8 3 -8 0 -14 -5 -14 -6 0 -13 -8 -15 -17 -3 -10 -3 2 -1 27 2 25
1 38 -2 30 -4 -8 -15 -26 -25 -39 -17 -21 -19 -22 -20 -5 0 18 -1 18 -8 -1 -5
-11 -7 -23 -4 -27 2 -5 0 -8 -6 -8 -6 0 -8 12 -4 30 6 31 -4 39 -24 19 -8 -8
-13 -8 -18 1 -5 8 -12 7 -26 -5 -17 -16 -18 -16 -25 9 -3 14 -10 26 -15 26 -5
0 -6 -7 -3 -15 4 -8 0 -23 -7 -32 -12 -14 -11 -15 8 -9 12 4 24 2 28 -4 3 -6
11 -8 16 -5 5 4 9 0 9 -8 0 -8 -7 -17 -15 -21 -9 -3 -15 0 -15 9 0 24 -18 17
-34 -12 -11 -20 -15 -23 -16 -10 0 19 -20 24 -20 5 0 -6 -3 -8 -7 -5 -3 4 -12
2 -19 -4 -9 -8 -11 -5 -7 10 3 11 11 17 18 15 9 -4 15 8 20 36 4 23 5 43 3 44
-1 2 -17 -1 -35 -6 -23 -6 -30 -13 -27 -26 5 -19 -31 -48 -41 -32 -3 6 0 10 8
10 8 0 13 9 12 23 -1 12 4 27 12 32 16 12 8 95 -9 95 -6 0 -8 -7 -5 -15 4 -8
2 -17 -3 -20 -6 -4 -10 4 -11 17 -1 21 -1 21 -9 -4 -14 -46 -22 -53 -37 -33
-11 16 -13 17 -13 2 0 -16 37 -57 51 -57 3 0 -1 -29 -11 -65 -9 -35 -16 -77
-14 -92 2 -16 1 -20 -2 -10 -3 9 -10 15 -15 12 -5 -4 -6 8 -3 27 l5 33 -20
-35 c-11 -19 -23 -43 -27 -53 -10 -27 -25 0 -18 33 4 25 4 25 -6 2 -5 -13 -15
-20 -20 -17 -11 7 2 30 24 46 11 9 -3 31 -15 24 -5 -4 -9 0 -9 7 0 9 -3 9 -10
-2 -8 -13 -10 -12 -10 3 0 9 4 17 9 17 5 0 12 11 15 25 4 14 11 23 16 20 6 -3
10 3 10 14 0 12 -4 21 -9 21 -5 0 -11 6 -14 13 -2 6 -2 2 -1 -10 6 -34 -6 -56
-22 -42 -9 8 -14 8 -14 1 0 -6 4 -13 10 -17 5 -3 0 -17 -12 -30 -22 -26 -40
-27 -19 -1 8 10 9 16 1 21 -5 3 -10 16 -10 28 0 16 3 18 9 9 7 -11 9 -11 14 2
4 9 1 16 -6 16 -8 0 -7 4 3 11 12 9 12 10 -3 5 -10 -3 -28 -1 -39 5 -16 9 -19
8 -15 -3 2 -7 10 -12 16 -11 6 2 11 -7 11 -18 0 -18 -2 -19 -15 -9 -9 7 -15 8
-15 2 0 -5 7 -12 15 -16 8 -3 15 -16 14 -28 0 -13 -3 -17 -6 -10 -2 6 -9 10
-14 6 -5 -3 -9 2 -9 10 0 9 -4 16 -9 16 -5 0 -8 -30 -5 -67 4 -62 3 -66 -11
-46 -10 14 -14 39 -11 80 1 32 1 50 -1 40 -3 -9 -9 -14 -14 -11 -6 3 -10 0 -8
-7 1 -8 1 -31 0 -52 -1 -46 -25 -47 -27 -1 -2 45 -10 90 -18 103 -13 20 -26
12 -26 -16 0 -20 -3 -24 -9 -14 -5 8 -11 9 -15 3 -4 -6 2 -15 11 -21 10 -5 15
-13 11 -16 -4 -4 -15 1 -25 10 -11 11 -18 14 -21 6 -5 -16 -22 -14 -22 4 0 8
-4 15 -10 15 -5 0 -10 -8 -10 -17 0 -16 -2 -16 -11 -3 -8 12 -10 8 -7 -16 2
-17 -2 -36 -9 -43 -10 -9 -13 -9 -13 4 0 8 -6 15 -13 15 -7 0 -23 9 -34 19
-21 20 -21 20 -26 0 -3 -10 -12 -19 -21 -19 -9 0 -13 6 -10 14 3 8 1 17 -5 21
-7 3 -11 -2 -11 -14 0 -12 -4 -21 -10 -21 -5 0 -7 8 -4 18 5 14 3 14 -10 -2
-9 -11 -16 -28 -16 -37 0 -10 -5 -21 -12 -25 -8 -5 -9 -2 -5 10 4 10 3 15 -3
11 -6 -3 -10 -15 -10 -26 0 -16 -2 -18 -14 -7 -9 9 -10 15 -3 20 5 3 10 20 9
38 -1 37 -12 55 -12 21 0 -17 -4 -22 -16 -17 -9 3 -18 6 -21 6 -3 0 1 8 8 17
13 15 11 16 -10 10 -14 -3 -31 -1 -38 5 -10 8 -13 7 -13 -5 0 -8 6 -18 13 -21
9 -5 9 -7 0 -12 -7 -3 -13 -16 -13 -29 0 -28 -49 -44 -51 -16 0 13 -1 14 -6 1
-9 -22 -26 -30 -40 -18 -10 8 -13 6 -13 -10 0 -11 -7 -25 -15 -32 -13 -11 -19
-8 -40 14 -14 15 -25 34 -25 43 0 9 -3 13 -6 10 -4 -4 -15 3 -25 15 -11 11
-19 17 -20 12 0 -5 -4 -1 -7 9 -7 16 -9 16 -30 1 -12 -8 -19 -20 -15 -27 4 -7
9 -4 14 9 7 18 8 18 8 -2 1 -29 12 -37 25 -18 9 12 12 2 13 -47 2 -72 -7 -71
-16 2 -2 15 -31 4 -37 -14 -5 -15 -8 -17 -15 -6 -6 11 -9 10 -15 -4 -3 -9 -1
-24 6 -33 10 -11 10 -18 2 -26 -16 -16 -41 18 -34 44 3 13 -2 21 -15 24 -15 4
-18 12 -15 35 3 17 0 29 -7 29 -6 0 -11 -12 -11 -26 0 -14 -4 -23 -10 -19 -6
3 -10 2 -10 -4 0 -5 5 -11 11 -13 8 -3 8 -10 -2 -25 -10 -17 -16 -19 -26 -11
-7 6 -13 16 -13 22 0 6 4 4 10 -4 5 -8 12 -11 16 -7 4 3 1 13 -6 22 -11 14
-14 13 -26 -2 -7 -10 -14 -29 -14 -43 -1 -24 -1 -25 -10 -3 -9 21 -50 30 -50
10 0 -4 -5 -5 -11 -1 -8 4 -9 0 -4 -15 4 -12 2 -21 -4 -21 -6 0 -11 6 -11 14
0 8 -4 17 -9 21 -6 3 -6 -6 -1 -24 12 -44 -17 -51 -35 -8 -8 17 -14 26 -15 19
0 -7 -4 -10 -10 -7 -5 3 -10 1 -10 -6 0 -7 -7 -4 -15 7 -8 10 -15 14 -15 7 0
-8 -14 -10 -40 -8 -30 3 -40 0 -40 -11 0 -8 -5 -12 -10 -9 -6 4 -8 16 -5 28 6
21 5 21 -15 -2 -15 -18 -23 -21 -33 -12 -8 6 -18 7 -22 3 -5 -4 -5 1 -2 10 4
12 2 15 -9 11 -7 -3 -14 -9 -14 -15 0 -5 -6 -8 -12 -7 -28 3 -36 -2 -43 -28
l-7 -28 -14 27 c-21 40 -57 33 -65 -13 l-6 -34 -2 30 c-2 17 -5 24 -8 17 -4
-10 -10 -7 -21 9 l-15 22 -18 -34 -18 -34 5 35 c5 34 5 35 -9 11 l-15 -24 -6
21 c-4 12 -11 22 -16 22 -15 0 -22 -40 -10 -55 7 -8 10 -20 7 -27 -2 -8 -13 1
-26 22 -21 34 -22 34 -15 6 5 -22 4 -28 -7 -24 -8 3 -14 14 -13 26 0 12 -7 23
-19 26 -16 4 -18 1 -13 -21 5 -16 3 -22 -4 -18 -5 3 -10 14 -11 23 -1 10 -4 7
-8 -8 -4 -15 -15 -26 -29 -28 -12 -2 -22 -8 -22 -13 0 -5 -4 -9 -8 -9 -4 0 -8
9 -8 19 0 11 3 18 6 16 13 -8 40 23 33 40 -6 17 -7 16 -14 -3 -6 -14 -15 -20
-33 -18 -29 4 -32 -3 -14 -24 11 -12 10 -12 -5 -1 -9 7 -17 10 -17 5 -1 -5 -7
5 -15 21 l-13 30 -1 -29 c-1 -28 -2 -29 -16 -10 -17 23 -19 14 -3 -21 12 -26
28 -34 28 -13 0 6 2 9 5 7 6 -7 -6 -49 -15 -49 -4 0 -12 10 -18 23 -6 12 -11
16 -11 9 -1 -7 -6 -10 -12 -6 -6 3 -15 1 -19 -6 -13 -21 -31 -1 -24 28 4 21 3
24 -5 12 -6 -8 -11 -10 -12 -5 0 6 -5 1 -10 -10 -9 -19 -9 -19 -5 2 2 13 -3
28 -12 35 -13 11 -15 10 -9 -4 8 -22 -11 -23 -41 -3 -20 14 -21 14 -16 0 3 -8
2 -15 -3 -15 -12 0 -4 -58 8 -66 5 -3 9 -15 9 -27 0 -20 0 -20 15 -1 14 18 14
17 9 -13 -5 -25 -2 -33 16 -43 16 -9 25 -9 36 1 15 12 32 4 62 -31 12 -13 13
-12 9 7 -3 13 -1 25 4 28 4 3 5 13 2 22 -4 11 -3 14 5 9 7 -4 12 -14 12 -22 0
-20 19 -8 30 20 9 21 9 21 9 -3 1 -16 5 -21 16 -17 10 3 15 -1 16 -12 0 -14 2
-14 9 3 8 19 11 18 14 -4 0 -5 5 -13 9 -18 5 -4 7 5 5 21 -4 34 17 47 27 17 3
-11 11 -20 18 -18 6 1 13 -8 15 -21 2 -12 6 -20 10 -18 4 2 8 -7 8 -20 2 -30
-1 -30 -52 0 l-41 23 -9 -26 -10 -26 -27 40 -27 40 0 -38 c0 -25 -4 -37 -14
-37 -8 0 -16 6 -19 13 -3 6 -2 -8 0 -33 5 -43 5 -44 -11 -25 -13 15 -19 17
-23 7 -4 -10 -9 -8 -19 7 -9 12 -21 18 -30 14 -9 -3 -21 3 -30 16 -18 26 -31
27 -37 4 -3 -15 -6 -14 -14 6 -6 16 -12 20 -17 13 -7 -11 -1 -22 37 -63 9 -10
17 -27 17 -37 0 -11 -7 -6 -20 16 -25 40 -31 41 -24 2 8 -40 2 -38 -31 10 -17
25 -34 39 -42 36 -8 -3 -16 1 -19 9 -4 8 -13 15 -21 15 -8 0 -13 -6 -10 -13 2
-6 -1 -17 -8 -24 -10 -9 -14 -7 -20 10 -4 16 -8 18 -12 8 -4 -10 -9 -8 -19 10
-14 24 -14 24 -7 -6 6 -27 5 -29 -10 -16 -15 12 -17 11 -17 -3 0 -10 -4 -15
-9 -12 -5 3 -7 16 -5 29 2 12 1 16 -2 8 -4 -7 -15 -22 -25 -32 -19 -19 -19
-18 -19 15 0 18 -7 39 -15 46 -10 9 -15 9 -15 1 0 -6 3 -11 8 -11 4 0 8 -16 9
-35 3 -28 0 -33 -14 -28 -9 4 -14 2 -10 -3 3 -5 -3 -10 -14 -10 -11 0 -19 7
-19 18 0 28 -17 30 -25 1 -7 -28 8 -45 32 -36 7 3 13 0 13 -6 0 -12 -40 -55
-46 -49 -2 2 -6 40 -9 83 -7 86 -8 91 -25 80 -7 -4 -9 -19 -5 -37 5 -21 4 -28
-4 -24 -6 4 -11 3 -11 -3 0 -5 8 -12 17 -14 17 -4 17 -5 1 -6 -10 0 -18 -9
-18 -18 -1 -12 -6 -7 -15 12 -7 17 -14 26 -14 21 -1 -6 -8 -1 -16 10 -10 14
-14 15 -15 4 0 -10 -3 -11 -11 -3 -9 9 -16 8 -27 -4 -15 -15 -13 -35 9 -99 2
-7 0 -14 -6 -15 -5 -2 -18 21 -28 51 -10 30 -25 60 -33 67 -9 7 -13 17 -8 24
4 8 3 10 -4 5 -7 -4 -12 -15 -12 -24 -1 -13 -5 -11 -16 8 -8 14 -13 17 -10 7
5 -15 3 -16 -15 -6 -18 9 -20 8 -15 -8 3 -10 8 -43 11 -73 3 -30 9 -56 14 -58
5 -2 7 -12 4 -22 -9 -35 -20 -12 -29 57 -4 38 -9 73 -10 78 -1 6 -3 15 -4 20
-1 6 -5 1 -10 -10 -7 -17 -9 -17 -9 -2 -1 9 -5 17 -11 17 -5 0 -7 -7 -4 -15 4
-8 1 -15 -5 -15 -6 0 -11 12 -11 28 l0 27 -15 -28 c-13 -25 -15 -199 -14
-1325 0 -1140 2 -1295 14 -1278 8 11 15 15 15 10 0 -6 -7 -19 -15 -30 -12 -16
-14 -210 -15 -1446 l0 -1428 338 0 339 0 18 40 c10 22 20 38 22 36 3 -2 -3
-18 -11 -35 -9 -16 -16 -32 -16 -36 0 -3 47 -5 104 -5 l105 0 4 28 4 27 2 -27
1 -28 633 0 632 0 -1 57 -2 58 7 -55 6 -55 3639 -3 c3428 -2 3638 -1 3632 15
-4 9 -9 38 -11 63 -4 41 -3 39 11 -17 l16 -63 339 0 339 0 -10 26 c-6 14 -9
44 -9 67 2 39 2 38 9 -14 4 -31 10 -61 14 -68 5 -8 111 -11 379 -11 l372 0 28
48 c16 26 37 58 49 72 17 22 17 20 -3 -15 -12 -22 -31 -52 -41 -67 -10 -14
-18 -29 -18 -32 0 -4 134 -5 297 -4 l297 3 7 25 7 25 1 -27 1 -28 609 0 c481
0 610 2 614 12 4 10 6 10 6 1 1 -10 66 -13 292 -13 286 0 291 0 286 20 -3 11
-1 18 4 14 5 -3 9 -12 9 -20 0 -24 39 -17 44 9 19 90 16 103 -30 148 -24 23
-41 45 -39 48 3 2 23 -13 45 -34 30 -29 40 -35 40 -21 0 9 4 15 9 12 5 -3 16
15 26 39 9 25 21 45 26 45 6 0 5 -9 -1 -23 -11 -21 -11 -21 4 -3 9 11 14 29
10 40 -3 12 -2 16 3 10 5 -8 16 1 32 27 46 72 32 32 -19 -56 -27 -49 -49 -89
-48 -91 2 -1 39 27 83 63 83 67 159 122 120 86 -12 -10 -68 -57 -126 -105 -93
-77 -107 -92 -113 -125 -12 -75 -9 -83 28 -83 24 0 36 5 39 18 4 16 5 16 6 0
1 -16 14 -18 131 -18 126 0 130 1 134 23 12 54 15 59 12 20 l-4 -43 1513 0
1514 0 4 33 4 32 1 -32 2 -33 301 0 c264 0 300 2 295 15 -3 8 -1 15 4 15 6 0
10 -7 10 -15 0 -13 21 -15 128 -15 l128 0 -4 73 c-2 39 -2 70 1 67 3 -4 15
-91 17 -132 0 -5 108 -8 239 -8 182 0 241 3 244 13 4 9 6 9 6 0 1 -10 111 -13
516 -13 l514 0 0 305 c0 299 -1 305 -19 283 -28 -36 -33 -16 -5 22 33 45 32
92 -5 159 -16 29 -27 59 -23 65 3 6 -2 4 -11 -4 -9 -9 -17 -29 -19 -45 -6 -45
-28 -109 -42 -120 -7 -6 -15 -19 -17 -30 -3 -12 -8 -2 -12 27 -8 46 -36 89
-36 55 0 -8 6 -18 13 -20 9 -4 8 -8 -3 -16 -26 -18 -30 -12 -24 32 5 37 2 48
-19 72 l-25 29 -23 -74 c-19 -64 -23 -71 -30 -50 -4 14 -7 45 -8 68 -1 27 -9
56 -23 75 l-22 32 26 -23 c29 -27 25 -33 49 66 15 59 31 51 24 -13 l-5 -40 14
35 c17 42 21 84 6 60 -12 -19 -12 52 0 90 7 21 8 17 7 -18 0 -23 3 -45 6 -49
10 -10 35 26 48 69 7 21 22 47 35 59 13 12 20 28 17 38 -4 14 -3 14 6 1 13
-18 62 -172 57 -178 -2 -2 -14 28 -26 67 -13 39 -26 71 -31 71 -4 0 -18 -17
-31 -38 -18 -29 -23 -52 -24 -107 -1 -38 -5 -68 -10 -65 -4 3 -7 20 -5 38 4
52 -12 36 -36 -35 l-23 -67 22 -23 c16 -17 24 -20 30 -11 5 9 8 4 8 -13 0 -14
11 -36 25 -49 l24 -23 20 24 c22 27 33 71 25 94 -4 8 2 27 11 42 l18 26 32
-69 33 -69 1 399 c1 368 0 398 -15 380 -15 -17 -15 -17 0 8 13 23 16 63 16
245 0 159 -3 214 -11 203 -9 -12 -9 -11 -3 5 13 31 17 183 4 165 -5 -8 -10
-23 -10 -32 0 -10 -4 -18 -9 -18 -11 0 6 57 19 65 5 3 9 105 10 227 0 176 -2
220 -12 210 -22 -22 -30 -12 -10 13 19 24 20 41 20 263 0 225 -1 234 -15 189
-22 -73 -25 -51 -4 29 16 59 19 106 19 329 l0 260 -20 -63 c-11 -35 -22 -62
-24 -60 -2 2 5 36 14 76 10 40 21 70 25 66 4 -4 7 33 7 82 -1 84 -2 87 -15 59
-7 -16 -14 -24 -14 -17 -1 8 -6 10 -13 5 -7 -4 -4 6 6 22 11 16 21 43 24 60 8
60 10 390 2 370 -8 -18 -9 -18 -10 5 -1 23 -2 23 -10 5 -5 -11 -9 -39 -9 -62
-1 -28 -8 -50 -19 -61 -18 -18 -19 -17 -19 25 0 27 4 39 9 31 4 -7 8 -10 8 -5
0 4 13 58 30 121 l29 114 0 283 c-1 181 -4 266 -10 236 -11 -68 -19 -71 -13
-6 5 53 5 54 -10 24 l-15 -30 2 35 c0 19 -2 45 -7 57 -6 18 -4 22 8 17 10 -4
18 1 23 12 6 16 7 16 14 -2 4 -10 7 30 7 91 0 96 -2 106 -13 85 l-14 -25 1 33
c1 20 6 32 15 32 10 0 13 22 13 96 0 61 -4 93 -10 89 -5 -3 -10 1 -10 9 0 8 4
18 10 21 6 4 10 92 10 223 -1 222 -5 286 -21 276 -5 -3 -9 0 -9 6 0 6 -4 8
-10 5 -5 -3 -10 -2 -10 4 0 11 -26 9 -37 -4 -4 -4 -2 -5 5 -1 6 4 12 2 12 -5
0 -7 -8 -9 -21 -6 -14 4 -23 -1 -29 -16 l-9 -22 0 23 c-1 28 -22 37 -50 22
-15 -8 -21 -8 -21 0 0 6 -4 9 -9 6 -5 -4 -12 0 -14 6 -4 10 -8 9 -16 -2 -13
-19 -33 -20 -47 -1 -13 17 -54 22 -54 7 0 -6 -5 -4 -10 4 -8 13 -10 13 -10 -2
0 -9 -5 -20 -11 -24 -8 -5 -10 2 -6 22 5 26 4 27 -8 10 -8 -10 -21 -16 -29
-13 -8 3 -17 -1 -20 -9 -3 -8 1 -14 10 -14 8 0 13 -4 9 -10 -10 -16 -36 1 -30
20 6 19 -3 50 -15 50 -4 0 -10 -10 -14 -22 -5 -19 -8 -21 -16 -8 -9 13 -11 13
-20 0 -8 -13 -10 -13 -10 0 0 11 -3 11 -12 2 -17 -17 -33 -15 -18 3 11 13 10
14 -5 9 -10 -4 -21 -1 -26 7 -7 11 -10 9 -16 -10 -6 -23 -7 -23 -20 -5 -12 16
-15 17 -23 4 -9 -13 -10 -13 -11 0 0 10 -3 8 -8 -5 -8 -19 -8 -19 -15 3 -6 19
-10 21 -23 10 -22 -18 -46 -19 -39 -2 4 12 1 14 -15 9 -11 -4 -26 -1 -34 5 -8
6 -19 9 -24 6 -5 -4 -12 -2 -16 3 -3 6 -19 4 -41 -5 -35 -15 -54 -12 -54 7 0
6 5 7 10 4 6 -3 10 2 10 11 0 16 -1 16 -20 -1 -11 -10 -20 -14 -20 -9 0 5 -7
1 -15 -10 -15 -19 -35 -14 -35 10 0 17 -5 17 -30 4 -13 -7 -19 -6 -24 5 -7 20
-23 19 -29 -2 -3 -10 -5 1 -4 24 0 23 -2 46 -6 49 -4 4 -7 -11 -7 -34 0 -39
-1 -41 -31 -40 -17 1 -35 9 -43 19 -15 21 -56 15 -56 -8 0 -12 -3 -13 -14 -3
-8 6 -12 19 -10 28 4 13 2 12 -11 -3 -9 -12 -19 -16 -23 -10 -8 12 -37 13 -48
2 -13 -13 -24 -7 -24 13 0 23 -3 24 -30 8 -17 -11 -22 -10 -30 2 -8 12 -10 11
-10 -7 0 -12 -5 -25 -11 -29 -7 -4 -10 -1 -7 7 5 16 -30 51 -43 43 -4 -2 -6
-11 -3 -19 5 -12 1 -12 -19 -2 -14 6 -24 15 -21 18 2 4 -12 -1 -31 -9 -27 -13
-35 -22 -35 -43 0 -34 -29 -105 -30 -72 0 12 5 25 10 28 6 3 10 22 10 41 0 21
-4 33 -10 29 -5 -3 -10 -1 -10 6 0 8 -5 5 -13 -5 -12 -16 -15 -14 -31 23 -11
22 -23 38 -28 35 -4 -3 -6 -9 -3 -14 3 -5 0 -12 -6 -15 -5 -4 -8 -13 -5 -21 6
-15 -3 -18 -26 -9 -10 4 -13 17 -11 38 l4 32 -17 -30 c-20 -35 -32 -45 -49
-39 -7 3 -15 -5 -18 -17 -4 -14 -11 -20 -21 -16 -11 5 -16 0 -16 -13 0 -26
-12 -25 -39 3 -18 20 -20 29 -12 50 10 27 31 45 31 28 0 -6 -5 -11 -11 -11 -6
0 -9 -6 -6 -12 2 -7 10 -12 16 -10 6 1 11 -3 11 -9 0 -5 5 -7 10 -4 6 3 10 1
10 -4 0 -6 5 -11 10 -11 12 0 13 40 1 58 -4 8 -10 13 -12 13 -14 -2 -49 13
-52 23 -2 6 -3 3 -2 -6 2 -10 -1 -18 -6 -18 -5 0 -9 6 -10 13 -1 24 -18 -29
-18 -60 -1 -17 -6 -35 -11 -38 -6 -4 -8 -11 -5 -16 4 -5 1 -9 -4 -9 -6 0 -11
14 -11 32 0 25 -3 29 -12 20 -9 -9 -9 -19 0 -46 7 -18 10 -40 6 -49 -3 -8 -1
-18 5 -22 6 -3 11 -1 11 5 0 6 5 8 10 5 14 -9 12 9 -3 24 -10 10 -9 11 5 6 11
-5 18 -24 23 -68 4 -34 12 -68 19 -76 9 -12 8 -12 -10 -3 -16 9 -22 7 -33 -10
-7 -11 -11 -21 -9 -22 2 -1 15 -8 30 -15 14 -7 25 -19 23 -25 -2 -6 -6 -23 -9
-39 -6 -24 -9 -26 -26 -17 -11 6 -20 16 -20 23 0 7 4 6 10 -3 7 -11 10 -4 9
25 0 22 -3 34 -6 28 -2 -7 -10 -13 -16 -13 -7 0 -20 -14 -30 -31 -14 -26 -20
-29 -32 -19 -8 7 -15 22 -16 34 0 14 -2 16 -6 6 -13 -32 -73 -65 -73 -40 0 6
-7 10 -15 10 -8 0 -12 6 -9 14 3 8 0 17 -7 22 -8 5 -11 2 -7 -8 4 -8 2 -21 -3
-29 -7 -11 -9 -9 -9 7 0 12 -10 25 -25 32 -23 10 -25 9 -31 -15 l-7 -27 -9 24
c-5 14 -12 20 -16 15 -16 -23 -32 -15 -27 12 6 27 6 27 -9 9 -13 -16 -18 -17
-31 -6 -12 10 -15 9 -16 -6 0 -18 -1 -18 -9 1 l-9 20 -2 -20 c-1 -11 -2 -26
-2 -32 1 -7 -3 -10 -8 -7 -5 3 -6 16 -3 29 3 12 1 26 -5 30 -6 3 -9 11 -6 16
10 16 -4 10 -25 -11 -26 -26 -38 -25 -51 3 -8 19 -9 18 -4 -8 6 -29 6 -29 -9
-10 -9 11 -16 14 -16 7 0 -12 -35 -52 -45 -52 -3 0 0 9 7 20 11 17 11 22 0 29
-7 4 -15 32 -18 62 -4 39 -2 50 5 39 6 -8 11 -29 11 -47 0 -37 17 -54 22 -21
2 14 9 23 20 22 11 -1 19 8 23 27 6 26 8 27 21 14 9 -8 19 -15 24 -15 5 0 11
-9 15 -20 8 -26 27 -21 42 10 l11 25 12 -30 c9 -23 13 -26 20 -15 6 8 10 11
11 5 0 -5 5 1 9 15 l8 25 1 -24 c1 -19 4 -21 15 -12 23 19 56 22 56 4 0 -13 3
-13 15 -3 10 8 15 27 14 49 -1 20 1 54 5 76 3 22 3 33 -1 25 -3 -8 -12 -21
-20 -28 -7 -7 -13 -24 -13 -38 0 -13 -4 -24 -10 -24 -5 0 -10 -7 -10 -15 0 -8
-5 -15 -11 -15 -7 0 -9 9 -5 23 3 12 6 29 6 37 0 13 1 13 10 0 8 -13 10 -13
10 2 0 9 2 23 5 31 4 8 0 14 -10 14 -8 0 -15 -7 -15 -14 0 -8 -5 -11 -10 -8
-6 4 -8 11 -5 16 4 5 0 9 -7 10 -7 0 -23 2 -35 5 -16 3 -23 -1 -23 -12 0 -8
-4 -13 -9 -9 -5 3 -3 -8 5 -25 14 -26 14 -32 1 -45 -13 -13 -16 -13 -21 1 -3
9 -6 34 -7 57 l-1 42 -12 -35 c-6 -19 -17 -44 -24 -55 -13 -19 -13 -19 -7 5
15 55 12 65 -18 62 -19 -2 -29 3 -34 15 -10 26 -33 47 -41 38 -4 -4 -1 -10 6
-12 6 -3 12 -12 12 -20 0 -13 -3 -13 -15 -3 -12 10 -15 10 -15 0 0 -20 -28 8
-33 33 -3 15 -5 11 -6 -11 0 -18 3 -31 8 -27 19 11 21 -15 2 -34 -14 -14 -16
-22 -8 -30 8 -8 8 -11 -2 -11 -8 0 -12 -14 -11 -42 3 -67 0 -75 -15 -43 l-13
30 -3 -30 c-1 -16 -1 -38 -1 -48 1 -10 -2 -16 -7 -12 -5 3 -12 -3 -14 -12 -4
-17 -5 -17 -6 0 0 10 -5 15 -11 12 -13 -8 -24 43 -12 58 7 8 6 18 -4 31 -13
19 -14 18 -15 -15 -1 -62 -9 -69 -57 -54 -20 7 -23 13 -18 36 3 16 1 29 -4 29
-12 0 -24 -46 -16 -65 6 -18 5 -18 -28 -5 -42 16 -31 57 25 93 31 21 39 14 39
-32 1 -34 2 -35 15 -17 8 11 15 33 15 49 0 22 4 28 15 23 19 -7 21 34 3 52 -9
9 -8 15 5 24 13 10 15 20 9 43 -5 19 -11 25 -16 17 -4 -7 -16 -12 -27 -12 -17
0 -25 -21 -20 -52 0 -5 -3 -8 -9 -8 -5 0 -10 9 -10 19 0 25 -20 38 -31 20 -6
-10 -9 -11 -9 -1 0 16 -70 8 -81 -10 -6 -10 -12 -8 -23 7 -14 17 -17 18 -26 5
-8 -13 -10 -12 -10 3 0 14 -4 16 -19 7 -26 -13 -31 -13 -31 5 0 8 9 24 20 35
25 25 25 32 1 54 -18 16 -19 16 -17 -1 0 -10 -5 -17 -11 -15 -18 3 -16 -17 1
-24 12 -4 12 -10 -1 -35 -8 -16 -18 -29 -23 -29 -4 0 -10 -9 -13 -20 -3 -11
-11 -20 -18 -20 -10 0 -10 3 -1 12 18 18 15 25 -10 24 -17 -1 -24 5 -27 24 -1
14 -8 28 -15 32 -8 6 -8 8 0 8 19 0 24 27 6 27 -23 0 -32 -17 -21 -39 6 -10 7
-23 4 -28 -10 -16 -35 1 -36 24 -1 25 -5 14 -14 -37 -7 -44 -22 -42 -19 2 1
17 -4 35 -12 42 -10 8 -12 7 -9 -10 2 -12 7 -26 10 -31 3 -6 2 -10 -4 -10 -5
0 -13 9 -16 20 -10 31 -35 25 -34 -7 0 -16 3 -23 6 -16 3 10 7 10 17 0 11 -10
10 -14 -2 -23 -17 -12 -42 3 -42 25 0 6 -9 11 -20 11 -17 0 -19 3 -10 19 5 11
10 28 10 37 0 10 -9 1 -20 -21 -14 -27 -16 -41 -9 -46 8 -5 8 -9 -1 -14 -6 -4
-16 -17 -21 -29 -7 -16 -8 -13 -3 14 3 19 8 43 10 53 3 9 0 17 -6 17 -6 0 -8
5 -5 10 4 6 11 8 16 5 5 -4 9 0 9 8 0 10 -7 13 -20 10 -22 -6 -25 0 -10 27 9
16 6 19 -20 18 -17 -1 -30 -5 -30 -11 0 -5 -7 -4 -15 3 -12 10 -15 10 -15 0 0
-7 -9 -2 -19 11 -21 26 -26 21 -35 -36 -2 -16 -5 -32 -5 -35 -1 -3 -6 3 -12
12 -7 12 -7 24 0 37 6 10 8 21 5 24 -9 8 -44 -5 -38 -14 3 -5 9 -7 14 -4 4 3
7 -6 6 -19 -1 -21 -5 -24 -31 -19 -16 2 -36 6 -42 9 -8 2 -13 -6 -13 -20 0
-31 -10 -56 -21 -56 -6 0 -5 8 1 19 14 28 12 51 -4 51 -8 0 -16 12 -18 28 l-4
27 -17 -35 -18 -35 4 38 3 37 -23 -27 c-22 -27 -22 -27 -23 -5 0 24 -15 30
-23 10 -3 -7 -6 -4 -7 7 l-1 20 -9 -20 c-8 -18 -9 -18 -9 -2 -1 29 -21 9 -21
-21 0 -19 3 -23 9 -13 6 9 11 10 15 2 4 -6 3 -11 -3 -11 -6 0 -8 -7 -5 -15 4
-8 2 -15 -4 -15 -10 0 -25 37 -23 58 3 18 -27 15 -38 -5 -9 -15 -10 -13 -11
12 -1 29 -1 29 -15 11 -12 -16 -15 -17 -15 -4 0 17 -43 33 -48 19 -2 -5 -12
-19 -23 -32 -13 -15 -19 -18 -19 -8 0 8 6 21 12 27 17 17 -10 36 -29 20 -7 -6
-13 -6 -13 -1 0 14 -51 8 -61 -8 -7 -11 -9 -10 -9 4 0 18 -1 18 -17 1 -17 -17
-18 -17 -22 1 -2 14 -5 15 -12 4 -7 -11 -9 -11 -9 -1 0 22 -27 -11 -33 -39 -3
-18 -5 -16 -6 11 -2 33 -2 34 -14 14 -10 -19 -14 -20 -25 -8 -11 12 -10 14 3
14 9 0 14 4 10 9 -3 5 -18 9 -33 9 -22 -1 -35 -11 -55 -42 l-26 -41 -7 42 c-4
29 -11 40 -22 39 -9 -2 -18 -8 -20 -14 -2 -7 -10 -12 -17 -12 -20 0 -26 -28
-9 -45 14 -13 14 -15 -1 -15 -10 0 -23 -16 -33 -40 -21 -50 -29 -51 -24 -3 4
30 2 35 -12 30 -16 -6 -21 6 -16 47 1 11 -3 15 -9 12 -6 -4 -11 -2 -11 4 0 7
-6 10 -14 7 -7 -3 -19 0 -25 6 -8 8 -11 8 -11 -2 0 -10 -3 -11 -13 -2 -19 15
-28 3 -14 -20 10 -16 8 -23 -12 -41 -13 -13 -21 -18 -17 -11 4 7 -2 21 -12 31
-10 10 -16 25 -14 33 3 8 -5 4 -17 -8 -20 -22 -23 -22 -46 -7 -13 8 -34 14
-47 13 -13 -2 -37 4 -55 13 -22 11 -34 13 -42 5 -8 -8 -11 -8 -11 -1 0 6 -14
11 -32 12 -18 0 -38 8 -45 18 -10 14 -13 14 -13 3 0 -12 -2 -12 -10 1 -9 13
-10 13 -10 0 -1 -9 -5 -6 -10 8 -12 29 -40 29 -41 0 -1 -20 -2 -20 -6 -4 -7
29 -30 49 -36 33 -4 -8 -8 -9 -14 -2 -15 20 -48 11 -51 -12 -3 -22 -22 -33
-22 -13 0 6 -7 10 -15 10 -9 0 -12 6 -8 17 5 12 2 15 -9 11 -9 -4 -21 -1 -27
5 -9 9 -13 6 -17 -11 -4 -12 -13 -22 -21 -22 -10 0 -12 6 -8 20 9 28 -19 26
-33 -2 l-11 -23 -1 25 c-1 22 -4 21 -21 -15 -15 -32 -19 -35 -19 -17 0 33 -23
22 -34 -16 -5 -18 -12 -32 -16 -32 -8 0 -5 31 5 65 5 17 2 20 -27 19 -28 -1
-35 -6 -45 -35 -9 -27 -12 -29 -12 -11 -1 12 -6 31 -13 41 -11 18 -13 18 -25
3 -8 -11 -12 -12 -13 -4 0 6 -5 12 -11 12 -8 0 -9 -15 -5 -45 5 -29 4 -45 -3
-45 -6 0 -11 16 -11 36 0 29 -3 35 -16 30 -8 -3 -12 -2 -9 4 3 6 1 10 -4 10
-16 0 -13 -21 7 -43 9 -11 11 -17 3 -12 -8 4 -17 2 -22 -6 -6 -10 -9 -7 -10
11 -1 14 -1 28 0 33 1 10 -13 9 -43 -2 -17 -7 -26 -7 -30 2 -3 8 -10 6 -20 -7
-14 -17 -16 -18 -16 -3 0 9 -7 17 -15 17 -8 0 -15 -9 -15 -20 0 -11 -4 -20
-10 -20 -5 0 -10 7 -10 15 0 8 -4 15 -9 15 -5 0 -7 -10 -5 -22 l5 -23 -12 23
c-7 12 -16 22 -21 22 -19 0 -48 -21 -48 -35 0 -21 -18 -19 -23 3 -4 13 -5 12
-6 -5 0 -12 -5 -25 -11 -28 -6 -4 -7 6 -3 26 4 23 3 30 -5 25 -7 -4 -12 -16
-12 -27 0 -10 -4 -19 -10 -19 -15 0 -49 -37 -42 -46 4 -4 2 -4 -5 0 -15 8 -7
32 13 40 16 6 19 46 4 46 -5 0 -10 -8 -10 -17 0 -15 -2 -16 -10 -3 -5 8 -10
11 -10 5 0 -5 -5 -3 -11 5 -7 10 -12 11 -15 4 -4 -9 -13 -9 -33 -1 -32 12 -62
4 -57 -15 1 -7 1 -10 -1 -5 -3 4 -11 7 -18 7 -8 0 -17 10 -21 23 -7 21 -7 21
-14 2 -4 -11 -5 -22 -1 -25 12 -10 11 -31 -4 -61 -9 -16 -13 -34 -10 -39 3 -5
1 -12 -5 -15 -7 -4 -10 6 -8 30 1 20 5 38 9 41 8 5 2 55 -8 64 -3 3 -8 0 -10
-6 -2 -6 -10 -20 -19 -30 -13 -18 -14 -17 -9 11 l6 30 -16 -27 c-18 -31 -31
-39 -15 -9 6 13 7 22 0 26 -5 3 -12 -16 -16 -45 -7 -54 -16 -59 -18 -10 -1 16
-5 30 -10 29 -5 0 -12 3 -15 8 -3 4 -14 14 -23 21 -16 12 -17 10 -11 -25 6
-39 -11 -38 -19 1 -3 19 -38 33 -38 15 0 -5 -7 -9 -15 -9 -8 0 -15 4 -15 9 0
18 -54 4 -61 -15 -7 -18 -8 -18 -8 1 -1 28 -58 31 -66 4 -4 -11 -11 -19 -17
-19 -5 0 -8 7 -4 15 3 8 1 15 -4 15 -6 0 -10 -7 -10 -15 0 -20 -16 -19 -24 1
-5 13 -9 14 -21 4 -9 -7 -15 -20 -14 -29 2 -28 -1 -41 -11 -41 -5 0 -7 13 -3
30 3 19 1 30 -6 30 -6 0 -11 -7 -11 -15 0 -8 -5 -15 -11 -15 -5 0 -8 4 -5 9 4
5 0 12 -6 14 -10 4 -10 6 0 6 6 1 12 7 12 15 0 26 -25 23 -37 -3 -8 -19 -12
-21 -12 -8 -2 28 -17 20 -37 -20 -17 -35 -19 -36 -22 -14 -6 37 -42 68 -42 37
0 -8 -5 -18 -12 -22 -7 -5 -9 -2 -6 8 5 11 0 14 -19 10 -15 -3 -29 1 -34 9 -8
11 -13 9 -29 -10 -16 -18 -20 -20 -20 -6 0 12 -5 15 -20 10 -11 -3 -20 -2 -20
3 0 5 -15 8 -32 7 -29 -2 -33 -6 -30 -29 4 -35 -11 -33 -24 3 -9 22 -18 29
-38 29 -27 0 -50 -32 -38 -52 3 -5 0 -6 -6 -2 -8 4 -8 15 -2 31 6 15 6 27 0
30 -6 4 -10 -3 -10 -13 0 -11 -8 -26 -17 -33 -15 -13 -16 -12 -10 9 5 23 4 24
-31 17 -20 -4 -43 -12 -51 -18 -12 -10 -14 -9 -9 5 6 14 2 15 -25 7 -43 -12
-45 -12 -50 9 -3 15 -5 15 -11 -3 -4 -11 -12 -29 -17 -40 -7 -16 -8 -14 -4 9
5 25 4 28 -8 18 -8 -7 -18 -8 -22 -4 -5 4 -5 -2 0 -13 4 -11 8 -29 9 -39 0
-11 11 -30 25 -44 22 -22 23 -22 19 -4 -4 15 0 22 16 26 31 8 36 7 36 -8 0 -9
8 -12 25 -8 27 5 32 -7 14 -39 -13 -26 -3 -62 11 -39 8 13 10 13 10 -1 0 -24
-23 -40 -40 -28 -11 7 -12 11 -3 17 8 5 9 13 3 22 -6 9 -4 20 3 29 9 12 9 13
0 7 -8 -4 -13 -2 -13 6 0 10 -2 10 -9 -1 -5 -7 -13 -11 -19 -7 -6 3 -18 -1
-26 -10 -9 -8 -16 -11 -16 -5 0 6 -9 11 -20 11 -11 0 -20 -7 -20 -16 0 -8 -4
-13 -9 -10 -5 3 -11 -3 -14 -14 -3 -11 -1 -18 4 -14 5 3 9 0 9 -5 0 -6 7 -11
15 -11 8 0 15 4 15 8 0 4 9 8 20 9 11 1 18 -2 15 -7 -3 -4 1 -10 9 -13 11 -5
13 0 7 21 -14 50 1 55 18 6 19 -57 36 -64 73 -30 26 25 29 62 5 77 -5 4 -4 15
3 29 6 12 9 28 6 35 -2 7 2 16 11 19 11 5 14 1 11 -12 -3 -10 2 -24 10 -31 13
-12 17 -12 28 4 7 10 15 23 17 29 7 18 14 3 19 -40 6 -40 5 -41 -24 -40 -16 1
-33 7 -37 15 -6 10 -10 10 -16 1 -4 -6 1 -17 10 -24 15 -10 16 -16 6 -35 -7
-12 -10 -27 -7 -34 2 -7 5 -4 5 6 1 9 8 17 16 17 9 0 15 10 16 23 1 21 1 21 9
-3 8 -25 8 -25 9 -2 1 13 5 21 10 17 5 -3 12 4 16 15 3 11 11 20 16 20 5 0 9
7 9 15 0 9 7 18 16 22 11 4 14 13 10 29 -5 18 -3 22 9 18 9 -4 15 -16 13 -28
-2 -15 2 -21 15 -20 12 1 16 -3 13 -15 -3 -9 -1 -23 4 -31 8 -12 10 -11 10 7
0 16 5 21 15 17 8 -3 22 1 31 11 21 20 22 18 16 -27 -2 -24 -10 -38 -18 -38
-16 0 -19 -36 -4 -45 6 -3 10 3 10 14 0 11 5 23 10 26 6 3 10 17 10 31 0 13 5
24 11 24 5 0 7 -4 4 -10 -3 -5 -1 -10 5 -10 6 0 8 -4 5 -10 -3 -5 -2 -10 4
-10 13 0 23 33 15 54 -3 9 -1 16 5 16 6 0 11 -9 11 -20 0 -11 6 -19 13 -17 6
1 12 -8 12 -20 0 -11 3 -25 8 -29 4 -4 7 -2 7 4 0 7 6 12 14 12 8 0 17 6 19
13 4 9 8 9 15 -1 7 -11 10 -9 15 7 5 21 27 30 27 11 0 -5 -4 -10 -10 -10 -5 0
-10 -7 -10 -15 0 -8 -5 -15 -11 -15 -5 0 -7 -5 -3 -11 4 -8 12 -3 21 12 13 23
14 23 8 -11 -5 -33 -4 -33 6 -10 l12 25 7 -25 c8 -25 8 -25 15 8 4 17 12 32
17 32 6 0 8 -12 4 -27 -5 -26 -5 -26 11 5 9 17 20 32 25 32 4 0 8 10 9 23 1
21 1 21 8 -3 4 -14 14 -24 21 -22 8 2 11 -5 8 -23 -4 -17 -1 -25 9 -25 10 0
12 -6 8 -20 -8 -27 0 -25 33 5 18 17 28 21 32 12 7 -16 60 -17 60 0 0 6 5 15
11 19 8 5 10 -1 7 -20 -7 -36 9 -33 17 4 13 59 32 42 27 -25 -2 -20 -2 -20 10
0 11 19 11 19 19 0 7 -19 8 -18 8 3 1 28 15 28 28 0 9 -20 11 -18 18 22 7 36
9 40 13 20 6 -37 22 -53 38 -39 11 9 14 8 14 -1 0 -10 3 -10 15 0 12 10 15 10
15 -2 0 -8 7 -15 15 -15 9 0 15 9 15 22 0 20 17 45 30 45 11 0 -7 -119 -20
-135 -7 -8 -9 -23 -5 -36 6 -17 4 -21 -8 -16 -9 3 -19 -4 -27 -19 -14 -26 -33
-33 -24 -9 7 18 -7 20 -25 3 -11 -10 -13 -10 -7 0 4 6 3 12 -2 12 -5 0 -9 14
-10 31 -1 29 0 30 13 13 8 -11 15 -14 15 -9 0 6 7 -1 15 -15 13 -24 14 -24 21
-5 4 11 11 22 15 25 4 3 1 14 -7 25 -14 19 -16 19 -25 2 -7 -13 -15 -15 -28
-8 -21 12 -47 -2 -36 -19 6 -9 4 -11 -4 -5 -7 4 -10 16 -8 27 5 16 2 19 -13
15 -13 -3 -17 -1 -13 10 4 11 1 14 -8 11 -9 -3 -14 -19 -14 -43 0 -22 -5 -40
-12 -42 -8 -3 -13 5 -13 21 0 14 -5 26 -11 26 -5 0 -7 4 -4 10 3 5 2 18 -4 27
-8 15 -11 12 -19 -17 -9 -30 -10 -31 -11 -10 -2 33 -16 56 -26 41 -4 -7 -16
-9 -27 -5 -18 5 -19 4 -7 -18 11 -21 11 -22 -5 -9 -25 21 -32 9 -39 -66 -4
-36 8 -44 18 -13 3 11 11 20 16 20 14 0 11 -17 -6 -34 -8 -8 -15 -19 -15 -24
0 -5 -9 -21 -20 -34 -10 -14 -17 -28 -14 -30 2 -3 -2 -11 -11 -18 -13 -11 -14
-10 -9 4 4 9 1 16 -6 16 -9 0 -7 6 4 19 14 16 16 26 8 48 l-9 28 -12 -42 c-6
-23 -20 -48 -30 -55 -18 -13 -21 -17 -21 -40 0 -7 -5 -5 -11 5 -5 9 -7 22 -4
27 10 16 -7 12 -27 -7 -21 -19 -24 -6 -3 21 7 10 18 15 24 11 7 -4 11 3 11 17
1 21 2 21 13 6 12 -15 14 -15 25 2 9 14 8 19 -3 23 -9 4 -12 17 -8 45 3 21 0
49 -6 61 -9 15 -9 21 0 21 6 0 13 -9 16 -20 3 -11 9 -17 14 -14 5 3 9 0 9 -5
0 -25 19 -9 26 22 7 31 8 32 15 7 6 -20 7 -21 8 -5 1 37 -14 48 -27 20 -11
-24 -14 -25 -28 -11 -8 9 -20 16 -25 16 -5 0 -9 8 -9 18 0 12 -4 11 -14 -8 -7
-14 -9 -29 -4 -34 4 -6 8 -15 8 -20 0 -6 -4 -5 -9 3 -7 11 -26 -55 -33 -116
-1 -7 -8 -13 -15 -13 -10 0 -12 6 -8 20 5 16 3 19 -12 13 -15 -6 -16 -4 -5 9
8 10 9 19 3 22 -5 3 -12 0 -14 -6 -4 -9 -8 -10 -14 -2 -4 6 -18 14 -29 18 -16
5 -23 2 -27 -14 -6 -25 -27 -26 -27 -1 0 48 12 79 29 74 12 -4 11 -2 -3 9 -17
14 -18 18 -5 46 8 18 17 32 21 32 5 0 8 5 8 11 0 8 -5 8 -15 -1 -8 -7 -15 -17
-15 -22 0 -5 -9 -18 -20 -30 -16 -17 -20 -35 -19 -87 0 -36 -5 -95 -11 -131
-6 -36 -9 -82 -7 -102 3 -21 1 -41 -4 -44 -5 -3 -9 4 -9 15 0 14 -5 19 -15 15
-10 -4 -15 0 -15 12 0 16 -2 17 -10 4 -8 -13 -10 -13 -10 1 0 9 7 22 15 29 13
10 15 9 16 -11 l0 -24 11 23 c13 25 -5 78 -22 67 -22 -14 -9 47 15 68 25 22
47 97 28 97 -10 0 -33 -57 -33 -86 0 -15 -2 -16 -9 -5 -5 8 -3 27 5 47 19 46
18 51 -9 26 -13 -12 -25 -20 -28 -18 -2 2 -4 -17 -5 -42 0 -26 1 -41 3 -34 3
6 9 12 14 12 6 0 5 -9 -2 -21 -16 -31 -28 -7 -27 53 1 33 6 49 17 53 13 5 14
7 1 16 -12 8 -9 14 20 38 33 28 33 29 8 24 -14 -3 -30 -15 -36 -26 -8 -17 -11
-18 -11 -5 -1 9 -5 19 -10 22 -5 4 -7 -4 -4 -16 4 -19 3 -20 -6 -8 -9 13 -11
12 -11 -4 0 -12 5 -16 15 -12 12 4 13 -3 8 -42 -8 -67 -26 -115 -43 -119 -12
-4 -13 -3 -1 5 8 6 11 17 8 26 -4 9 -2 16 3 16 6 0 9 17 9 38 -1 20 -3 29 -6
20 -5 -19 -22 -25 -24 -8 -1 6 -3 15 -4 20 -1 6 -3 15 -4 20 0 6 -5 10 -11 10
-5 0 -10 -26 -12 -57 l-3 -58 -13 54 c-8 37 -9 58 -2 65 5 5 10 17 9 25 0 14
-1 14 -6 1 -13 -31 -53 -55 -53 -30 0 6 -9 6 -22 1 -13 -4 -29 -6 -35 -4 -7 3
-13 0 -13 -6 0 -17 -24 -8 -33 13 -7 18 -8 18 -29 0 -21 -19 -21 -19 -14 1 7
18 5 18 -14 -3 -12 -12 -18 -27 -15 -32 10 -16 13 -90 4 -85 -4 3 -10 -1 -12
-7 -3 -8 -6 -6 -6 5 -1 20 -17 23 -24 5 -2 -7 -3 12 -1 42 4 54 -11 104 -28
94 -4 -3 -8 0 -8 6 0 25 -18 -2 -28 -42 -6 -24 -18 -52 -27 -63 -14 -17 -16
-18 -11 -2 3 10 2 16 -3 12 -5 -3 -16 1 -24 9 -11 11 -17 12 -26 3 -9 -9 -11
-7 -6 8 6 18 5 18 -5 3 -6 -10 -18 -18 -25 -18 -8 0 -15 -6 -15 -12 0 -10 -3
-9 -9 1 -7 11 -11 10 -21 -5 -10 -16 -11 -16 -6 -1 8 27 -3 45 -25 40 -11 -3
-19 0 -19 7 0 10 -3 10 -15 0 -12 -10 -15 -9 -15 5 0 17 -1 17 -18 2 -13 -12
-22 -13 -36 -5 -13 7 -20 7 -26 -2 -5 -8 -9 -5 -13 9 -3 12 -10 21 -17 21 -6
0 -9 -3 -7 -7 3 -5 -11 -8 -30 -7 -19 1 -39 7 -44 15 -7 11 -9 12 -9 0 0 -8
-6 -11 -16 -7 -12 5 -15 2 -11 -13 2 -10 0 -25 -5 -32 -7 -12 -9 -11 -7 1 1 8
1 27 0 43 -1 25 -3 26 -22 15 -18 -11 -23 -11 -26 0 -4 10 -8 10 -19 1 -8 -6
-11 -16 -7 -23 3 -6 -3 -3 -14 7 -19 17 -20 16 -33 -23 -9 -28 -18 -39 -28
-35 -7 3 -21 5 -29 5 -12 0 -14 8 -9 38 5 32 4 33 -5 12 -5 -13 -8 -43 -5 -65
3 -22 3 -33 -2 -25 -7 15 -24 23 -55 24 -13 0 -17 7 -15 25 2 13 -3 26 -10 29
-7 2 -12 0 -11 -5 4 -23 -2 -43 -12 -38 -6 4 -8 13 -5 21 4 9 -2 13 -17 11
-16 -1 -21 3 -19 17 2 11 -1 15 -7 11 -6 -3 -11 0 -11 7 0 7 -13 -14 -29 -47
l-28 -60 -7 35 c-13 61 -17 70 -32 70 -8 0 -14 -4 -14 -10 0 -5 -7 -7 -15 -4
-8 4 -15 18 -15 33 1 23 2 24 11 7 9 -15 13 -16 20 -5 5 8 8 23 8 34 0 11 -3
14 -6 8 -6 -17 -33 -17 -33 0 0 8 -7 14 -15 14 -8 0 -11 -5 -8 -10 3 -6 5 -34
4 -63 -1 -29 3 -55 9 -59 13 -8 13 -25 0 -25 -5 0 -10 7 -10 15 0 8 -5 15 -11
15 -7 0 -9 13 -5 38 5 30 4 33 -5 19 -6 -11 -9 -32 -5 -47 6 -32 -11 -90 -26
-90 -6 0 -8 6 -5 13 2 6 0 23 -5 37 -8 23 -10 23 -19 7 -6 -9 -15 -14 -21 -11
-6 4 -8 3 -5 -3 4 -6 0 -16 -8 -23 -13 -10 -15 -9 -15 9 0 13 -4 19 -10 16 -6
-4 -8 -15 -5 -25 3 -11 0 -20 -10 -24 -21 -8 -19 12 6 63 15 31 18 46 10 54
-8 8 -11 3 -11 -16 0 -15 -4 -27 -10 -27 -5 0 -13 -16 -19 -35 -5 -19 -16 -41
-24 -50 -13 -13 -15 -12 -20 4 -2 10 0 25 5 32 8 11 9 10 4 -3 -7 -22 10 -24
18 -2 11 28 6 41 -15 39 -25 -2 -38 -20 -33 -49 2 -11 -1 -6 -8 12 -12 34 -25
41 -34 17 -10 -25 -25 -17 -18 9 3 14 1 27 -6 31 -9 5 -10 1 -5 -14 7 -23 -4
-28 -23 -9 -9 9 -12 9 -12 0 0 -19 -35 -14 -64 9 l-26 20 0 -20 c0 -13 -6 -21
-17 -21 -19 1 -53 22 -53 34 0 12 23 6 42 -11 17 -15 18 -15 12 18 -4 26 -3
30 5 19 8 -12 11 -12 11 -1 0 8 8 4 20 -10 17 -21 21 -22 30 -9 9 13 10 12 8
-4 -2 -10 3 -21 11 -24 8 -3 11 0 7 6 -10 16 4 41 20 35 8 -3 14 0 14 6 0 6 5
10 12 9 6 -2 16 12 21 30 5 17 14 32 18 32 5 0 6 -7 3 -15 -5 -11 -1 -14 12
-9 15 4 16 4 5 -4 -11 -8 -11 -14 3 -33 l16 -23 0 37 c0 43 15 49 24 11 l7
-26 29 34 c35 39 35 40 10 63 -11 10 -20 25 -20 34 1 13 3 13 15 -3 15 -20 15
-20 16 0 1 10 1 26 0 35 -1 8 3 26 8 40 l10 24 0 -23 c1 -13 5 -21 11 -17 5 3
7 12 4 20 -4 8 1 18 10 21 9 3 16 14 15 23 0 12 -2 13 -6 2 -4 -9 -10 -2 -17
20 -7 20 -8 37 -3 40 6 4 5 14 0 24 -16 28 -37 -33 -23 -69 6 -17 6 -25 0 -21
-6 3 -10 13 -10 21 0 8 -4 14 -10 14 -5 0 -10 -9 -10 -20 0 -11 -4 -20 -10
-20 -5 0 -10 9 -10 19 0 11 -7 27 -16 35 -8 9 -12 21 -8 27 5 8 3 9 -5 4 -7
-4 -11 -15 -8 -24 2 -9 -2 -22 -8 -28 -14 -13 -8 -66 6 -57 5 3 9 0 9 -5 0 -6
-7 -11 -16 -11 -8 0 -13 -4 -10 -8 2 -4 1 -14 -3 -21 -6 -9 -12 -3 -20 20 -7
21 -8 36 -1 44 6 7 2 29 -13 66 l-22 54 -24 -22 c-26 -25 -22 -30 10 -13 24
13 24 9 -1 -46 -22 -48 -40 -58 -40 -21 0 18 2 19 10 7 7 -11 10 -11 10 -2 0
17 -30 62 -41 62 -5 0 -9 -8 -10 -17 0 -16 -1 -15 -8 2 -8 19 -8 19 -19 0 -6
-11 -12 -15 -12 -10 0 6 -5 3 -11 -5 -8 -11 -9 -5 -4 24 6 36 5 38 -9 27 -9
-8 -16 -20 -16 -27 0 -8 -4 -14 -10 -14 -5 0 -10 4 -10 9 0 5 -9 11 -19 14
-14 3 -18 1 -14 -9 7 -20 -4 -17 -28 7 -20 20 -21 20 -34 2 -13 -17 -14 -17
-15 0 0 9 -3 17 -7 18 -5 0 -19 2 -31 5 -18 3 -25 -1 -29 -16 -3 -11 -9 -20
-14 -20 -5 0 -6 6 -3 14 7 19 -16 32 -27 15 -5 -8 -9 -9 -9 -3 0 20 -28 24
-57 9 -19 -10 -29 -11 -34 -4 -5 8 -9 8 -13 0 -14 -22 -23 -10 -20 26 l3 37
-22 -34 c-12 -19 -24 -37 -27 -40 -4 -3 -12 -14 -18 -25 -10 -18 -11 -17 -9 9
2 22 -3 29 -18 32 -11 1 -23 -2 -27 -9 -5 -8 -8 -5 -8 7 0 20 0 20 -15 0 -10
-13 -14 -14 -15 -5 0 11 -3 11 -15 1 -12 -10 -15 -9 -16 6 -1 11 -1 23 0 27 1
5 -3 6 -9 2 -5 -3 -11 -21 -11 -38 -1 -18 -3 -24 -6 -15 -5 19 -33 13 -33 -6
0 -20 -29 -15 -36 6 -6 19 -39 25 -49 7 -4 -5 -14 -9 -23 -7 -10 2 -22 -3 -29
-12 -6 -8 -15 -12 -19 -8 -4 4 -2 14 5 21 8 10 8 21 1 38 -10 24 -10 24 -5 -2
6 -31 -3 -43 -21 -28 -8 7 -14 7 -19 -1 -3 -5 0 -11 7 -11 7 -1 0 -4 -16 -8
-26 -5 -48 -41 -26 -41 5 0 11 -8 13 -17 3 -10 5 -5 6 12 1 23 4 26 11 15 11
-19 100 -25 100 -7 0 7 4 6 10 -3 9 -13 10 -13 10 0 0 12 2 12 9 2 7 -11 9
-11 14 2 14 36 25 13 20 -41 -8 -82 -20 -98 -28 -40 -8 55 -20 53 -30 -3 -7
-43 -20 -52 -28 -20 -3 11 -10 20 -15 20 -14 0 -25 -34 -13 -38 6 -2 11 -15
11 -28 0 -25 9 -31 25 -14 7 6 9 -9 8 -39 -1 -35 -7 -55 -22 -70 -20 -20 -21
-20 -21 -2 0 11 5 23 11 27 8 4 7 9 -2 15 -8 5 -16 3 -20 -3 -5 -8 -12 -9 -21
-2 -24 18 -43 10 -43 -18 -1 -16 -7 -34 -14 -40 -11 -11 -12 -7 -7 18 5 21 2
35 -8 43 -12 10 -18 6 -36 -26 -12 -21 -18 -28 -14 -14 3 13 7 29 8 37 1 7 10
21 19 32 9 10 17 24 17 31 0 8 6 11 16 7 11 -4 15 -2 11 8 -3 8 1 17 10 20 12
5 14 0 11 -24 -2 -16 0 -31 6 -33 16 -5 42 54 37 86 -3 27 -21 39 -21 14 0
-21 -38 -18 -45 4 -4 10 -13 19 -21 19 -15 0 -21 65 -6 72 4 2 16 19 26 38
l19 35 -20 -18 c-17 -15 -21 -16 -26 -3 -3 8 -16 16 -29 18 -15 2 -23 9 -22
21 1 10 -5 17 -15 17 -14 0 -14 2 -1 10 8 5 11 12 7 16 -16 16 -29 -13 -17
-36 8 -15 8 -20 1 -16 -7 4 -11 -1 -11 -13 0 -12 -4 -21 -9 -21 -5 0 -7 9 -4
21 4 15 0 22 -16 26 -11 3 -18 9 -16 13 3 5 -9 5 -26 0 -24 -7 -30 -6 -26 4 4
11 -2 13 -24 9 -17 -2 -29 0 -29 7 0 7 -6 8 -19 0 -13 -7 -20 -7 -23 1 -2 6
-16 12 -30 13 -20 2 -29 -2 -33 -15 -6 -18 -8 -18 -23 -3 -11 12 -17 13 -20 5
-3 -8 -8 -6 -17 6 -7 9 -25 18 -39 19 -29 1 -30 0 -16 -26 6 -11 6 -21 1 -24
-5 -4 -12 7 -16 24 -6 28 -35 44 -35 19 0 -7 -7 -8 -17 -4 -34 14 -58 10 -71
-10 -12 -19 -13 -18 -9 8 2 15 1 27 -3 27 -11 0 -20 -54 -9 -58 12 -5 12 -32
-1 -32 -10 0 -14 20 -12 50 1 8 -1 22 -5 30 -4 11 -8 9 -13 -10 -8 -24 -9 -24
-15 -5 -7 24 -51 28 -64 6 -7 -11 -10 -9 -15 7 -6 17 -13 20 -43 16 -20 -3
-42 -9 -49 -15 -7 -6 -14 -6 -18 -1 -6 11 -76 22 -76 12 0 -4 -87 -4 -100 1
-8 3 -70 4 -71 2z m-3952 -189 c-6 -34 -5 -35 12 -20 22 20 31 20 31 0 0 -11
5 -14 18 -9 14 5 15 4 5 -6 -7 -7 -13 -28 -13 -47 0 -21 -4 -31 -11 -27 -6 4
-8 13 -6 19 7 18 -32 41 -46 27 -7 -7 -14 -5 -23 7 -10 13 -15 14 -25 5 -6 -6
-18 -9 -26 -6 -7 3 -13 2 -12 -3 5 -26 -3 -36 -12 -15 -9 23 -10 24 -24 5 -14
-18 -14 -18 -15 -1 0 10 -4 16 -9 12 -12 -7 -33 29 -23 41 4 5 -1 2 -10 -5
-16 -12 -18 -11 -18 13 0 23 2 25 19 16 16 -8 22 -6 30 7 9 15 10 13 11 -12 0
-24 5 -31 20 -32 11 -1 18 2 15 8 -4 5 -1 9 4 9 6 0 11 7 11 15 0 18 16 20 23
3 3 -8 6 -5 6 5 1 10 5 16 10 13 4 -3 7 -18 4 -33 -3 -27 -3 -27 7 -4 6 14 16
21 25 17 10 -4 15 1 15 14 0 11 3 20 6 20 4 0 4 -16 1 -36z m5357 9 c3 -7 12
-10 21 -7 19 8 20 -24 1 -61 -9 -17 -16 -22 -19 -13 -3 7 -6 3 -6 -9 -1 -22
-21 -34 -21 -13 0 16 -27 11 -34 -6 -7 -19 1 -34 18 -34 9 0 12 -18 12 -62 -1
-37 3 -63 10 -65 12 -4 25 33 28 74 2 33 24 52 36 33 9 -13 10 -13 11 0 1 8 0
26 -1 39 -1 15 2 21 9 16 6 -3 9 -10 6 -15 -3 -5 4 -19 15 -30 21 -21 22 -21
35 -3 8 10 15 24 15 32 0 19 30 -6 30 -26 0 -8 4 -12 9 -9 5 3 9 17 9 31 0 13
-4 23 -7 20 -14 -8 -28 30 -19 54 8 23 9 24 23 5 11 -15 17 -16 23 -6 5 7 15
10 24 7 9 -4 19 3 26 17 10 22 11 22 11 -9 1 -17 6 -35 13 -39 7 -5 8 -3 3 6
-5 8 -3 11 6 8 8 -3 16 -13 18 -24 2 -10 10 -23 18 -27 8 -5 11 -16 8 -27 -3
-10 -2 -21 3 -24 4 -3 21 20 36 50 16 30 31 53 33 50 3 -3 -1 -16 -9 -28 -8
-13 -13 -29 -10 -36 2 -8 15 8 27 35 22 45 23 46 18 13 -3 -19 -11 -38 -16
-41 -5 -4 -6 -12 -3 -18 11 -17 34 10 28 33 -3 13 -1 17 6 12 7 -4 12 -15 13
-24 0 -11 2 -12 6 -4 2 6 9 10 14 6 5 -3 9 -2 9 3 0 4 9 23 20 41 16 26 24 31
34 23 7 -6 16 -7 21 -3 4 4 0 -7 -8 -24 -15 -30 -14 -44 4 -44 5 0 6 7 3 15
-4 10 0 15 12 15 12 0 15 3 7 8 -8 5 -8 14 1 37 13 30 13 30 13 -17 1 -27 -3
-48 -8 -48 -6 0 -7 -5 -4 -10 4 -6 11 -7 17 -4 7 4 8 2 4 -4 -12 -19 4 -35 20
-21 13 10 12 15 -1 36 -10 15 -13 32 -9 46 5 12 7 24 7 27 -1 3 7 6 18 6 10 0
19 -7 19 -16 0 -9 3 -11 8 -4 4 6 17 13 30 16 18 5 22 2 22 -19 0 -13 -5 -34
-12 -46 -14 -27 -22 -109 -8 -87 5 8 10 11 10 5 0 -5 -5 -17 -10 -25 -7 -12
-11 -10 -19 10 -7 18 -10 20 -10 8 -1 -10 -6 -18 -12 -18 -5 0 -7 -4 -4 -10 3
-5 1 -18 -4 -27 -9 -15 -10 -13 -11 14 0 31 -2 32 -35 31 -27 -1 -40 -8 -56
-32 -17 -25 -20 -27 -16 -8 3 12 1 22 -4 22 -9 0 -13 -20 -10 -50 1 -11 -2
-10 -13 4 -11 13 -12 25 -5 43 11 31 12 30 -5 30 -8 0 -11 -7 -9 -18 7 -25
-13 -32 -33 -12 -17 17 -17 17 -12 -3 4 -17 2 -20 -18 -16 -20 4 -23 9 -18 31
l6 26 -14 -24 c-7 -13 -17 -24 -23 -24 -5 0 -16 -7 -24 -14 -11 -12 -10 -18
10 -39 17 -18 25 -21 32 -12 5 8 6 0 3 -22 -8 -44 -26 -64 -23 -24 1 18 -2 28
-10 27 -8 -2 -10 4 -6 15 6 14 4 15 -8 5 -13 -10 -15 -7 -16 20 -2 70 -1 69
-24 57 -12 -7 -18 -18 -15 -26 6 -16 -9 -19 -19 -4 -11 18 -35 -2 -35 -30 0
-16 -5 -32 -11 -36 -9 -5 -10 3 -5 29 7 39 -1 87 -15 87 -5 0 -6 -7 -3 -15 4
-8 1 -15 -6 -15 -6 0 -8 -4 -5 -10 3 -5 1 -10 -5 -10 -7 0 -14 9 -17 20 -6 22
-14 25 -29 10 -7 -7 -10 0 -7 22 l3 33 -10 -32 c-6 -18 -15 -35 -20 -38 -6 -3
-10 -18 -9 -33 0 -25 1 -25 9 -6 9 23 36 38 51 28 15 -9 10 -25 -8 -22 -11 2
-19 -6 -23 -21 -8 -36 -25 -36 -40 -1 -10 23 -10 33 0 45 14 17 5 35 -19 35
-23 0 -76 -67 -58 -73 6 -2 5 -3 -3 -2 -18 2 -36 -15 -43 -41 -3 -14 -5 -11
-6 9 0 15 4 27 9 27 6 0 10 5 10 11 0 5 -4 8 -9 4 -5 -3 -18 6 -29 20 -11 13
-22 21 -26 17 -4 -3 -4 1 0 11 7 19 -11 24 -20 5 -3 -7 -3 -2 0 11 5 19 3 23
-9 18 -17 -6 -29 23 -17 43 10 15 21 15 31 -2 7 -11 9 -11 9 0 0 10 4 9 16 -3
10 -10 14 -24 10 -40 -3 -13 -3 -26 1 -28 12 -8 13 44 2 80 -12 37 0 94 26
119 12 12 13 19 5 29 -9 11 -7 14 9 12 11 -1 23 -7 25 -14z m3842 -98 c-3 -25
-3 -45 -1 -45 2 0 13 15 25 33 21 32 22 32 16 5 -8 -35 10 -37 18 -3 9 34 24
23 20 -12 -4 -27 -4 -27 11 5 18 39 29 42 21 5 l-7 -28 19 28 c23 33 25 34 52
7 22 -22 26 -40 9 -40 -5 0 -7 -5 -4 -10 3 -6 -1 -17 -9 -26 -14 -13 -16 -13
-16 -1 0 17 -43 32 -48 17 -2 -6 -7 -8 -12 -5 -11 7 -23 -31 -15 -44 3 -6 -3
-15 -14 -20 -26 -14 -28 -14 -35 5 -3 8 -2 13 3 10 10 -7 21 39 12 52 -10 14
-40 10 -34 -5 4 -9 0 -11 -11 -7 -10 4 -16 1 -16 -9 0 -8 -7 -21 -17 -28 -15
-13 -16 -11 -10 24 3 20 2 37 -3 37 -5 0 -11 6 -13 13 -2 6 -3 0 -1 -15 2 -16
-1 -28 -6 -28 -6 0 -10 20 -10 45 0 44 0 44 26 34 32 -11 33 -10 36 24 1 15 6
27 10 27 5 0 6 -20 4 -45z m-4344 -22 c-2 -26 0 -34 6 -24 11 15 52 6 52 -11
0 -6 8 -1 19 10 22 26 41 29 41 6 0 -8 4 -13 9 -9 5 3 16 -1 24 -9 8 -8 18
-12 22 -8 4 4 5 -2 3 -13 -2 -11 -10 -20 -18 -20 -8 0 -19 -4 -23 -10 -5 -5
-6 4 -3 20 l6 30 -16 -29 c-17 -30 -17 -30 -33 -10 -16 20 -17 20 -41 -18 -21
-33 -26 -36 -33 -21 -4 10 -14 28 -21 41 l-14 23 -19 -25 -20 -26 5 48 c5 45
32 105 32 72 1 -12 3 -11 11 3 14 24 15 22 11 -20z m4712 23 c-3 -8 -1 -17 5
-21 6 -3 11 1 11 9 0 9 5 16 10 16 6 0 10 -4 10 -8 0 -5 6 -17 14 -27 13 -18
14 -17 8 10 -5 28 -4 29 13 15 13 -10 16 -11 11 -2 -6 10 0 9 23 -2 27 -15 31
-15 31 -1 0 17 25 21 35 5 10 -15 23 -12 28 8 3 9 5 4 6 -13 1 -23 4 -26 11
-15 7 12 11 10 19 -10 5 -14 10 -19 10 -12 1 6 6 11 13 10 6 -2 15 8 19 22 6
21 7 22 9 5 l1 -20 8 20 c8 19 8 19 15 -2 8 -26 24 -30 32 -8 5 13 10 11 29
-9 l23 -24 10 21 c9 18 11 19 11 5 1 -10 6 -18 11 -18 6 0 14 8 18 18 5 13 8
11 13 -13 6 -29 7 -28 9 10 2 35 3 37 10 15 4 -14 8 -19 9 -12 1 7 6 10 12 6
6 -3 15 0 20 7 6 10 9 7 9 -11 0 -20 2 -22 10 -10 9 13 10 13 11 0 0 -10 3 -8
9 5 5 11 9 14 9 7 1 -7 5 -11 10 -7 5 3 12 1 16 -5 10 -16 25 -1 25 26 0 13 4
24 8 24 4 0 7 -23 5 -51 -2 -53 6 -62 11 -13 4 37 28 37 40 1 8 -21 7 -30 -2
-36 -10 -6 -10 -10 2 -20 11 -9 16 -9 21 0 6 8 9 8 15 -1 5 -8 18 -10 34 -6
19 5 26 13 26 31 0 13 5 27 10 30 6 3 10 -2 10 -11 0 -25 11 -10 20 28 l8 33
1 -42 c1 -23 -3 -45 -9 -48 -5 -3 -10 -15 -10 -26 0 -11 -4 -18 -8 -15 -11 7
-52 -22 -52 -36 0 -7 5 -6 14 1 10 9 16 9 21 1 10 -17 -1 -23 -29 -16 -18 4
-23 11 -19 25 6 24 -15 38 -24 15 -5 -15 -8 -15 -17 -2 -6 8 -26 22 -43 32
-18 9 -33 21 -33 26 0 6 -8 10 -17 10 -21 -1 -55 -24 -47 -32 3 -4 1 -9 -5
-13 -7 -3 -11 3 -11 15 0 14 -4 19 -12 13 -7 -4 -31 -8 -52 -8 -22 -1 -41 -6
-43 -12 -2 -5 -10 -19 -18 -29 -13 -17 -14 -15 -10 21 2 22 2 32 -1 23 -8 -27
-26 -22 -19 5 5 18 3 17 -15 -8 l-22 -30 6 40 c6 39 6 39 -8 15 -14 -22 -15
-23 -16 -5 0 17 -2 17 -10 5 -9 -13 -11 -13 -20 0 -8 12 -10 10 -10 -10 0 -20
-2 -22 -10 -10 -7 11 -12 12 -21 3 -9 -9 -15 -8 -27 3 -13 13 -16 13 -28 -5
-9 -12 -21 -18 -30 -14 -10 4 -17 -2 -22 -18 -5 -21 -7 -18 -17 20 -8 35 -15
45 -33 46 -13 1 -26 -3 -29 -8 -3 -6 -1 -7 5 -3 7 4 12 5 12 2 0 -2 3 -13 7
-23 6 -15 5 -16 -9 -5 -12 9 -18 10 -23 2 -10 -16 -35 7 -35 33 0 19 -1 19
-19 3 -11 -10 -22 -28 -24 -40 -2 -11 -7 5 -11 38 -7 45 -6 60 5 67 20 13 29
11 23 -5z m-710 -38 c-7 -22 -6 -22 20 -5 29 20 43 16 56 -17 9 -20 9 -20 9 3
1 13 4 22 7 19 3 -4 17 0 32 8 20 10 28 11 34 1 6 -9 10 -8 18 3 6 10 10 11
10 3 0 -16 27 -17 32 -1 6 17 28 0 28 -21 0 -9 -6 -26 -14 -37 -14 -18 -15
-18 -21 8 -4 16 -11 26 -15 23 -5 -3 -11 1 -14 7 -4 7 -4 3 -2 -9 2 -13 0 -26
-5 -29 -5 -3 -7 -20 -4 -37 4 -18 2 -43 -4 -57 l-10 -25 -1 30 c-1 17 -3 47
-4 67 -1 41 -13 62 -13 23 0 -14 -7 -32 -14 -41 -12 -15 -14 -14 -19 7 -6 24
-6 24 -23 -6 -11 -20 -16 -24 -17 -13 0 12 -5 15 -16 11 -10 -4 -15 -1 -14 8
4 27 0 40 -10 34 -5 -3 -10 -16 -10 -28 0 -34 -17 -7 -24 39 -3 22 -3 44 1 47
12 12 14 7 7 -15z m3009 -9 c-4 -16 -8 -17 -14 -7 -7 10 -9 9 -9 -3 0 -9 6
-22 14 -28 12 -10 15 -8 18 11 4 32 38 37 39 6 0 -13 3 -18 5 -11 7 17 34 4
34 -16 1 -14 2 -14 14 2 19 25 23 22 31 -30 4 -28 15 -54 28 -65 12 -11 17
-17 10 -13 -7 3 -17 -4 -23 -16 l-12 -21 -14 21 c-9 12 -12 26 -9 31 3 6 3 15
-1 21 -4 7 -12 1 -20 -17 -7 -16 -13 -22 -14 -14 -1 10 -4 9 -9 -5 -7 -18 -9
-17 -25 13 -9 17 -20 32 -25 32 -13 0 -20 -49 -8 -53 6 -2 3 -6 -6 -10 -11 -4
-17 -1 -17 8 0 8 -4 15 -10 15 -5 0 -10 -12 -10 -27 0 -16 -4 -23 -9 -17 -12
12 -19 114 -8 114 5 0 6 13 2 29 -8 36 9 71 34 71 14 0 18 -5 14 -21z m-506
-19 c1 -11 -2 -20 -8 -20 -5 0 -9 -4 -9 -10 0 -5 7 -10 15 -10 8 0 15 4 15 10
0 5 7 7 16 3 9 -3 20 0 24 8 6 9 10 6 15 -14 9 -32 14 -33 43 -6 24 22 26 20
36 -37 4 -23 1 -31 -10 -31 -10 0 -14 7 -11 19 3 10 1 21 -4 24 -5 3 -9 -6 -9
-20 0 -31 -16 -42 -23 -16 -7 26 -26 25 -36 -2 l-8 -22 -5 22 c-4 12 -2 20 3
16 5 -3 9 2 9 10 0 21 -17 29 -24 10 -3 -9 -6 -27 -6 -42 0 -31 -20 -17 -23
15 -1 17 -4 19 -19 9 -20 -12 -24 -42 -6 -48 8 -3 8 -9 1 -22 -9 -16 -11 -14
-16 14 -4 19 -11 29 -18 24 -7 -4 -9 0 -5 14 4 11 2 23 -4 27 -5 3 -10 1 -10
-4 0 -6 -6 -11 -13 -11 -8 0 -14 -12 -14 -30 0 -16 4 -27 9 -24 4 3 8 1 8 -5
0 -18 -17 -21 -30 -6 -7 8 -17 12 -23 8 -6 -3 -7 -1 -3 5 4 7 13 12 20 12 9 0
12 9 8 26 -3 19 -7 22 -13 12 -7 -10 -9 -10 -9 3 0 9 -2 32 -5 50 -4 26 -3 30
4 14 5 -11 10 -14 10 -7 1 18 21 15 21 -4 0 -14 3 -14 15 -4 8 7 15 20 15 29
1 9 6 3 13 -12 l12 -29 24 26 c14 14 21 26 17 26 -4 0 -4 5 -1 10 9 14 11 13
12 -10z m2415 -73 c-1 -37 15 -23 20 17 2 19 9 30 21 32 21 3 24 -34 2 -42 -8
-4 -15 -18 -15 -34 0 -32 -30 -65 -30 -34 -1 11 -7 30 -15 44 l-13 25 -7 -30
c-13 -61 -25 -73 -22 -22 2 53 -7 63 -17 16 -3 -17 -10 -28 -16 -24 -6 4 -10
-8 -10 -31 0 -21 -3 -34 -7 -30 -4 4 -6 25 -4 46 1 24 -2 40 -8 40 -6 0 -11
-12 -11 -26 0 -19 -4 -25 -15 -20 -10 4 -19 -5 -28 -27 l-14 -32 0 48 c-1 37
2 47 12 43 18 -6 28 24 20 61 -6 27 -6 27 9 9 9 -11 16 -23 16 -28 0 -15 24
-8 47 14 19 18 26 20 32 9 12 -18 31 -5 31 22 1 21 1 21 12 3 6 -11 11 -33 10
-49z m-12363 -23 c0 6 8 1 17 -10 8 -10 13 -14 10 -8 -3 7 1 15 9 18 10 3 15
1 13 -7 -2 -6 1 -12 5 -12 13 0 30 -37 20 -44 -4 -3 -14 -19 -22 -36 -12 -28
-14 -28 -22 -10 -4 11 -8 16 -8 11 -1 -11 -37 34 -56 71 l-15 28 0 -26 c0 -16
9 -32 22 -41 19 -13 21 -18 11 -39 l-12 -24 -1 25 c-1 14 -4 19 -7 11 -4 -9
-12 -5 -29 15 -20 25 -23 26 -24 10 0 -25 -6 -19 -25 28 -9 21 -11 35 -6 31 6
-3 11 2 12 12 0 13 2 14 6 4 4 -11 10 -8 24 10 17 21 19 22 19 5 0 -17 2 -17
23 6 l22 24 6 -30 c4 -17 7 -27 8 -22z m10379 -120 c-26 -44 -30 -82 -11 -109
13 -19 13 -19 13 3 0 12 4 22 8 22 4 0 6 -16 4 -35 -3 -23 0 -35 8 -35 8 0 10
9 6 24 -6 26 9 45 25 29 14 -14 14 -93 0 -127 -6 -16 -14 -26 -17 -23 -3 3 -1
15 6 26 7 13 7 21 1 21 -6 0 -7 8 -4 18 6 15 4 15 -9 4 -9 -7 -19 -31 -23 -53
-11 -62 -26 -45 -22 25 2 54 1 62 -10 48 -7 -9 -13 -24 -13 -32 -1 -8 -8 -1
-15 15 -7 17 -11 33 -8 38 2 4 -1 7 -7 7 -5 0 -10 -12 -9 -27 1 -44 -5 -57
-39 -91 -18 -17 -32 -36 -32 -42 0 -5 -5 -10 -11 -10 -6 0 -9 9 -6 20 3 11 1
20 -4 20 -5 0 -9 8 -9 18 0 14 2 15 10 2 7 -11 10 -4 9 25 0 40 -17 96 -19 65
0 -8 -7 -24 -15 -34 -14 -18 -16 -19 -34 -2 -10 9 -28 18 -38 19 -15 1 -19 8
-18 27 1 14 3 36 4 50 1 14 4 20 9 14 4 -6 15 -10 25 -8 9 1 17 -4 17 -12 0
-8 5 -14 10 -14 6 0 10 12 10 26 0 19 4 25 15 20 10 -4 15 1 15 16 0 16 3 19
11 11 8 -8 4 -22 -15 -49 -13 -22 -28 -52 -31 -69 -5 -27 -4 -26 14 10 11 22
20 36 21 30 0 -18 28 31 37 66 l9 34 8 -45 c5 -33 9 -41 16 -30 9 13 10 13 10
0 1 -8 7 -3 16 13 19 36 25 34 18 -5 l-6 -33 21 30 c12 17 19 36 16 43 -3 7 7
29 21 48 34 44 39 43 12 -2z m-2167 -25 c-13 -38 -14 -60 -2 -41 6 10 10 7 15
-11 4 -19 11 -24 25 -20 13 3 18 10 14 21 -4 10 -2 13 5 8 7 -4 12 -2 12 6 0
10 2 10 9 -1 7 -11 11 -10 20 5 10 18 11 18 17 -3 3 -13 10 -21 14 -18 4 3 10
-5 13 -17 5 -17 9 -19 20 -10 8 7 17 9 21 5 4 -4 9 3 13 15 7 27 23 29 23 2 0
-34 20 -22 21 13 l1 32 9 -30 c18 -54 17 -98 -2 -153 -10 -30 -16 -59 -12 -65
4 -6 0 -8 -10 -4 -12 4 -17 1 -17 -11 -1 -15 -2 -15 -11 2 -6 10 -20 27 -30
37 -16 16 -19 16 -19 3 0 -8 -5 -12 -11 -8 -6 3 -9 17 -6 30 2 13 -2 29 -9 35
-11 9 -17 4 -29 -25 -16 -38 -31 -50 -20 -17 3 11 0 23 -6 27 -8 4 -9 3 -5 -4
4 -7 1 -12 -9 -12 -9 0 -14 4 -10 9 11 19 -17 23 -36 5 -12 -11 -19 -13 -19
-5 0 7 -5 9 -11 5 -6 -3 -15 -1 -19 6 -6 9 -11 7 -20 -9 -10 -19 -8 -26 7 -44
l18 -22 -22 19 c-17 14 -23 16 -23 5 0 -12 -2 -12 -9 0 -7 11 -12 6 -19 -20
l-10 -34 -7 33 c-4 17 -12 32 -17 32 -5 0 -6 9 -3 20 4 13 1 22 -10 26 -11 5
-13 10 -5 19 6 8 8 25 4 41 -7 25 -8 26 -15 9 -7 -18 -8 -18 -8 3 -1 31 -18
19 -26 -19 -5 -20 -10 -27 -15 -19 -5 8 -9 3 -12 -13 -3 -14 -2 -31 2 -37 10
-15 1 -50 -12 -50 -6 0 -8 7 -5 15 5 11 0 13 -23 9 l-29 -6 -1 63 c0 35 -2 88
-3 116 -2 29 1 47 5 40 4 -6 8 -23 8 -36 0 -24 0 -24 15 -5 14 19 15 19 21 -3
3 -13 11 -20 16 -17 6 4 14 0 19 -7 6 -10 9 -8 9 9 0 22 1 22 16 7 14 -13 19
-14 25 -3 7 10 9 9 9 -4 0 -30 15 -20 30 18 l15 36 12 -31 c12 -27 16 -30 33
-21 11 6 20 18 21 28 0 12 4 9 11 -8 10 -24 11 -23 20 20 12 60 17 74 24 67 4
-3 1 -20 -5 -38z m1719 -14 c0 -14 5 -25 10 -25 6 0 10 -8 11 -17 0 -15 2 -15
9 2 5 11 9 16 9 10 1 -5 6 -3 11 5 7 11 10 7 10 -17 0 -18 5 -33 10 -33 6 0
10 -7 10 -17 0 -9 3 -13 7 -10 3 4 1 18 -6 31 -10 18 -11 31 -2 53 l11 28 -3
-33 c-2 -18 0 -35 5 -38 4 -3 8 6 8 19 0 28 37 45 47 21 7 -18 -2 -81 -17
-123 -11 -27 -10 -35 1 -42 22 -14 28 -11 35 16 3 14 10 25 15 25 14 0 11 -10
-17 -57 -21 -36 -28 -42 -40 -32 -7 6 -11 15 -8 20 3 5 0 9 -6 9 -8 0 -9 7 -5
18 15 40 23 103 11 99 -6 -2 -12 -20 -14 -40 -4 -41 -9 -45 -29 -19 -13 16
-14 16 -8 -4 3 -13 -1 -26 -10 -34 -13 -11 -14 -8 -8 21 3 19 10 36 15 37 4 2
8 8 8 14 0 6 -7 8 -15 4 -10 -4 -15 1 -16 17 -1 12 -3 16 -5 7 -3 -8 -16 -20
-30 -27 -26 -12 -26 -11 -20 17 3 17 1 30 -4 30 -6 0 -11 -8 -11 -17 -3 -43
-5 -48 -16 -45 -7 1 -13 -2 -13 -7 0 -5 -9 -11 -20 -14 -24 -6 -25 1 -5 39 8
16 15 37 15 48 0 15 3 16 14 7 12 -10 17 -8 25 8 6 11 11 31 11 45 0 14 5 26
10 26 6 0 10 -11 10 -25z m-2127 -1 c-3 -9 -1 -19 4 -23 5 -3 15 -15 21 -26
10 -17 11 -17 12 -3 0 9 5 20 12 24 7 5 8 3 3 -7 -5 -8 1 -5 13 5 12 11 23 16
23 13 4 -23 4 -33 -2 -37 -3 -3 -9 -16 -13 -30 -6 -19 -5 -21 3 -10 6 8 11 13
12 10 8 -41 8 -110 0 -110 -6 0 -11 5 -11 11 0 5 -5 7 -12 3 -9 -6 -9 -9 0
-12 14 -4 16 -82 2 -82 -5 0 -10 10 -10 22 0 21 -2 20 -30 -10 -20 -22 -30
-28 -30 -18 0 9 5 16 11 16 7 0 9 9 6 21 -3 13 -1 19 6 16 7 -2 18 10 25 27 8
18 9 32 4 34 -6 2 -8 22 -5 45 3 23 3 40 0 37 -3 -3 -8 -30 -11 -59 -7 -81
-39 -97 -49 -26 l-4 30 -2 -34 c-1 -25 -5 -32 -16 -27 -13 4 -13 2 -5 -14 13
-24 13 -63 -1 -77 -17 -17 -29 -83 -15 -84 7 0 7 -2 -1 -6 -7 -2 -13 -13 -13
-23 0 -13 5 -17 20 -13 15 4 20 0 20 -13 0 -16 -2 -17 -10 -4 -8 12 -10 9 -10
-11 0 -15 -6 -31 -13 -38 -11 -8 -13 -4 -9 22 4 28 3 30 -11 19 -13 -11 -15
-10 -11 10 2 13 -3 4 -10 -19 -12 -36 -46 -97 -46 -83 0 3 9 33 19 67 10 34
16 64 13 67 -3 3 -1 6 5 6 16 0 33 48 33 93 0 32 5 45 21 55 16 10 18 17 10
25 -6 6 -11 20 -12 32 0 11 -7 -2 -15 -28 -8 -26 -19 -45 -25 -42 -5 4 -6 13
0 22 9 17 4 51 -11 70 -5 7 -6 18 -2 24 4 8 3 9 -4 5 -8 -5 -12 1 -12 16 0 18
-2 20 -9 8 -6 -8 -8 -18 -5 -22 3 -4 2 -24 -2 -43 -4 -25 -11 -35 -20 -31 -8
3 -14 1 -14 -5 0 -6 -4 -8 -9 -4 -5 3 -12 -3 -15 -12 -3 -10 -3 2 -1 27 l5 45
-24 -50 c-17 -36 -25 -44 -25 -28 -1 12 4 25 9 28 6 3 10 17 10 31 0 14 -4 22
-10 19 -5 -3 -10 -15 -10 -25 0 -10 -5 -22 -11 -26 -8 -4 -10 3 -7 22 3 16 3
23 1 17 -3 -10 -10 -10 -24 -3 -10 6 -19 9 -19 8 0 -2 7 -21 15 -43 16 -47 19
-84 5 -105 -14 -22 -23 -5 -10 19 8 16 7 31 -3 62 -13 38 -15 40 -21 18 l-8
-24 -7 25 -7 25 -9 -25 -8 -25 -9 30 c-4 17 -6 44 -3 60 l6 30 -15 -25 c-9
-14 -15 -33 -16 -43 0 -14 -5 -16 -25 -11 -27 7 -35 -12 -13 -34 9 -9 9 -12
-1 -12 -7 0 -10 -4 -6 -9 3 -6 14 -8 25 -6 13 3 17 -1 13 -11 -3 -8 -13 -14
-22 -14 -10 0 -22 -14 -30 -36 -7 -19 -15 -34 -17 -31 -3 2 0 17 6 32 7 19 7
31 -1 41 -6 7 -9 25 -6 41 4 25 4 25 6 -7 2 -33 3 -34 12 -11 8 20 6 29 -12
45 -12 12 -19 15 -15 9 4 -8 1 -13 -7 -13 -9 0 -20 -23 -30 -62 -13 -50 -16
-55 -13 -23 2 22 -3 51 -9 65 -7 14 -16 47 -20 74 -7 42 -6 48 8 43 9 -3 18
-1 21 6 4 7 4 -1 1 -16 -4 -20 -2 -26 5 -22 6 4 10 22 8 40 -3 44 5 51 22 20
17 -31 30 -32 30 -2 0 18 2 19 10 7 5 -8 10 -11 10 -6 0 6 7 1 15 -10 17 -23
18 -20 5 26 -9 32 -8 33 5 16 8 -11 15 -24 15 -29 0 -4 5 -5 10 -2 6 4 8 10 5
15 -9 15 19 29 32 15 6 -7 9 -16 6 -19 -4 -3 -1 -6 6 -6 6 0 14 7 17 15 4 8
11 15 16 15 6 0 8 -7 4 -15 -3 -8 -1 -15 4 -15 6 0 10 6 10 13 0 9 3 8 9 -2 7
-11 13 -9 31 9 18 18 24 20 31 9 7 -11 9 -9 9 6 0 15 2 17 9 6 5 -7 14 -10 20
-7 18 11 13 -5 -6 -21 -10 -8 -13 -12 -6 -9 6 4 14 0 16 -6 4 -9 6 -7 6 3 1 9
10 24 21 34 20 18 21 18 27 -3 7 -29 23 -28 24 1 1 21 1 21 9 -3 8 -24 8 -24
16 10 6 29 8 31 15 15 4 -11 8 -33 9 -50 1 -17 4 -23 7 -15 3 8 10 26 16 40
10 25 13 34 15 58 1 6 9 12 17 12 9 0 12 -6 8 -16z m-676 -104 c8 0 12 4 9 9
-3 5 6 11 19 14 22 4 25 1 20 -17 -6 -19 -4 -19 14 4 19 23 21 24 22 5 1 -11
3 -29 5 -40 9 -50 9 -83 2 -79 -4 3 -8 1 -8 -4 0 -5 -12 -22 -26 -38 -19 -21
-23 -23 -15 -7 13 26 14 40 2 28 -9 -10 -41 -109 -41 -127 0 -5 5 -6 12 -2 8
5 9 2 5 -10 -4 -10 -7 -27 -8 -39 0 -21 -1 -20 -11 3 -7 17 -6 45 2 92 12 66
7 108 -11 108 -5 0 -9 -17 -10 -37 0 -21 -4 -47 -8 -58 -7 -17 -9 -16 -15 13
-4 18 -12 29 -17 26 -11 -6 -3 53 12 93 6 17 5 21 -6 16 -8 -3 -15 -15 -15
-28 0 -12 -7 -28 -15 -35 -8 -7 -15 -19 -15 -26 0 -8 -6 -11 -15 -8 -8 4 -12
10 -9 15 3 5 2 9 -3 10 -4 0 -18 2 -30 5 -15 2 -26 -3 -34 -18 -11 -20 -12
-21 -25 -4 -7 10 -10 24 -7 32 6 16 -13 19 -22 3 -13 -20 -33 24 -28 61 7 42
33 77 33 43 0 -21 14 -25 38 -10 6 5 16 6 21 3 5 -3 19 9 30 27 21 31 21 32
15 5 -4 -18 -2 -28 5 -28 6 0 11 5 11 11 0 6 7 4 15 -5 8 -8 15 -22 15 -31 0
-9 4 -14 9 -11 4 3 6 18 3 33 -5 25 -4 27 11 14 15 -12 17 -11 17 7 0 11 3 29
7 39 6 14 9 10 16 -19 5 -23 15 -38 24 -38z m-337 20 l2 25 7 -25 c4 -14 13
-24 19 -23 7 2 9 -4 5 -14 -5 -12 -3 -14 7 -8 10 6 11 2 6 -20 -5 -19 -2 -33
10 -46 10 -11 14 -25 9 -36 -6 -15 -8 -15 -12 -3 -14 46 -14 46 -28 27 -11
-15 -13 -16 -19 -2 -10 28 -27 16 -23 -17 2 -18 2 -25 0 -15 -3 10 -10 17 -16
16 -26 -3 -37 2 -37 15 0 8 -4 17 -9 20 -5 3 -9 0 -8 -7 1 -40 -5 -56 -24 -62
-19 -6 -21 -13 -16 -51 2 -24 1 -47 -4 -50 -5 -3 -9 3 -10 13 0 16 -1 16 -10
-2 -7 -16 -8 -13 -7 15 1 19 6 41 12 48 14 20 -9 39 -29 22 -8 -7 -15 -8 -15
-3 0 5 11 15 25 21 14 6 25 19 25 28 0 18 27 43 48 44 6 0 21 -9 31 -19 19
-19 20 -19 36 15 11 24 15 49 11 77 -4 31 -3 36 3 17 l9 -25 2 25z m4662 -87
c2 -26 6 -30 24 -27 24 4 60 -29 49 -46 -6 -9 -2 -9 13 -1 12 6 26 19 31 29 7
10 11 12 11 4 0 -7 5 -10 10 -7 10 6 12 1 12 -52 1 -33 18 -37 18 -5 0 9 7 35
15 57 10 29 14 34 15 17 0 -13 4 -20 10 -17 6 3 10 1 10 -4 0 -6 5 -11 10 -11
6 0 10 10 10 23 0 18 2 19 10 7 8 -12 10 -12 10 5 0 15 2 17 9 6 5 -8 16 -11
26 -7 14 5 15 9 5 21 -16 20 -6 19 14 -1 12 -12 13 -20 6 -35 -8 -15 -7 -21 3
-25 22 -8 41 -1 51 21 8 17 11 14 19 -22 5 -24 14 -43 18 -43 5 0 17 19 29 43
11 23 18 32 16 20 -2 -13 0 -23 4 -23 5 0 1 -15 -8 -32 -9 -18 -16 -44 -15
-58 1 -19 0 -20 -4 -5 -13 49 -43 55 -43 9 0 -14 -4 -22 -10 -19 -6 4 -10 -8
-11 -27 0 -18 -4 -42 -9 -53 -15 -33 -9 65 6 102 7 17 10 34 6 37 -3 3 0 6 6
6 7 0 12 7 12 16 0 13 -3 14 -14 5 -11 -9 -15 -9 -20 1 -3 7 -3 1 0 -13 3 -15
1 -30 -5 -33 -6 -4 -11 -18 -11 -32 0 -13 -4 -24 -10 -24 -5 0 -10 7 -10 15 0
8 -4 15 -9 15 -5 0 -16 3 -24 6 -11 4 -21 -15 -41 -76 -14 -45 -26 -84 -26
-88 1 -16 40 74 40 92 0 16 2 18 9 7 10 -15 -3 -70 -27 -116 -14 -28 -16 -29
-24 -10 -7 17 -8 15 -5 -7 2 -15 1 -25 -4 -23 -4 3 -10 -1 -13 -7 -3 -7 -3 3
1 22 4 19 8 52 7 72 0 21 3 33 7 27 3 -6 10 6 13 28 4 21 10 49 13 62 5 19 3
22 -8 16 -11 -6 -12 -5 -1 6 6 7 12 22 12 34 -1 18 -2 18 -11 3 -5 -10 -16
-15 -24 -12 -10 4 -15 0 -15 -12 0 -13 -3 -15 -8 -7 -4 7 -12 9 -19 5 -13 -9
1 -52 18 -52 8 0 7 -5 -2 -17 -11 -13 -11 -17 -1 -20 6 -3 11 -19 11 -36 -1
-20 -3 -25 -6 -12 -10 46 -13 51 -23 35 -6 -8 -10 -28 -10 -45 -1 -29 -2 -29
-11 -7 -5 13 -6 29 -2 35 9 15 4 87 -7 106 -8 14 -11 11 -10 -14 1 -12 -32
-66 -37 -61 -3 2 2 25 10 50 15 45 14 56 -9 56 -8 0 -11 -9 -8 -25 3 -15 0
-24 -7 -23 -6 2 -19 -13 -30 -32 -11 -19 -19 -27 -19 -18 0 9 5 20 10 23 6 3
10 14 10 23 0 15 -2 15 -10 2 -5 -8 -10 -10 -11 -5 0 6 -5 1 -10 -10 -6 -14
-8 0 -6 46 1 42 -2 71 -10 78 -8 7 -14 7 -18 1 -4 -6 -11 -7 -17 -4 -7 5 -9
-2 -4 -19 3 -14 1 -36 -4 -49 -9 -20 -10 -18 -5 12 4 31 3 33 -9 17 -12 -15
-14 -15 -19 -3 -4 9 -2 18 3 21 7 4 6 13 0 25 -14 27 -13 53 3 43 28 -18 43
-12 56 23 15 41 19 40 23 -3z m-5434 -39 c7 -23 20 -48 29 -55 9 -8 14 -9 10
-3 -4 7 0 17 8 24 12 10 18 10 30 0 12 -10 15 -10 15 1 0 8 8 4 20 -9 15 -15
19 -29 14 -47 -6 -24 -8 -25 -24 -10 -16 15 -18 14 -24 -7 -3 -13 -6 -38 -6
-56 0 -19 -4 -31 -10 -27 -10 6 -7 48 6 80 5 12 -5 6 -25 -15 -18 -19 -30 -29
-26 -23 3 7 -1 25 -10 40 -13 22 -15 23 -10 6 4 -13 3 -28 -1 -35 -6 -9 -10
-5 -14 11 -3 14 -11 26 -17 28 -7 3 -10 -4 -6 -19 4 -18 3 -20 -6 -8 -10 13
-12 13 -21 0 -8 -12 -10 -10 -10 10 l-1 25 -14 -25 c-8 -14 -14 -19 -15 -11 0
7 -6 11 -13 8 -9 -3 -13 5 -13 28 0 19 4 31 8 29 4 -3 8 3 8 13 1 12 5 8 15
-12 12 -27 20 -21 16 12 -1 6 3 14 9 18 6 4 10 -7 11 -27 0 -31 1 -32 10 -9 5
13 7 33 3 44 -4 13 -2 17 5 13 13 -9 31 32 23 54 -3 10 -2 12 5 5 5 -5 15 -29
21 -51z m-572 -110 c-9 -24 -36 -16 -36 10 0 42 -15 37 -16 -6 -1 -22 -7 -45
-14 -51 -10 -10 -11 -6 -7 18 4 17 4 24 1 17 -5 -11 -10 -10 -23 2 -16 15 -18
14 -16 -18 0 -19 -3 -32 -7 -30 -4 3 -8 14 -8 26 0 17 -2 18 -15 8 -8 -7 -15
-22 -15 -33 0 -37 -17 -2 -19 41 -2 21 -41 -6 -41 -28 0 -12 -7 -20 -16 -20
-10 0 -14 6 -10 15 3 8 1 15 -4 15 -13 0 -24 70 -13 81 7 7 10 -1 11 -20 1
-50 25 -71 35 -32 3 13 0 18 -8 15 -16 -7 -26 19 -14 37 7 12 9 12 10 -1 0
-10 3 -8 9 5 7 17 9 17 9 3 1 -10 4 -18 7 -18 4 0 13 8 21 18 13 15 14 14 9
-15 -4 -25 -2 -31 9 -26 8 3 15 11 15 19 0 8 6 11 16 7 11 -4 22 1 30 12 8 11
14 14 14 6 0 -18 62 -3 75 18 8 13 11 8 13 -23 2 -21 1 -44 -2 -52z m6910 -96
c4 -7 3 -8 -4 -4 -22 13 -54 -78 -62 -179 -1 -15 -3 -16 -7 -5 -7 18 -29 40
-39 40 -4 0 -4 -3 -1 -6 4 -4 -2 -19 -13 -34 -11 -16 -20 -35 -20 -42 0 -8 -6
-15 -13 -15 -10 0 -12 15 -9 57 3 36 0 60 -7 64 -7 5 -11 -2 -11 -16 0 -17 -3
-19 -9 -9 -6 10 -13 2 -27 -28 -10 -22 -22 -41 -27 -41 -4 0 -6 4 -3 8 3 4 1
24 -3 43 -6 25 -3 45 10 74 13 28 19 34 20 20 1 -17 2 -16 9 5 l8 25 1 -24 c1
-16 5 -21 16 -17 8 3 15 0 16 -7 0 -7 7 4 15 23 l14 35 -4 -52 c-1 -29 1 -53
5 -53 5 0 9 7 9 15 0 20 17 19 29 -2 9 -15 10 -13 11 13 0 40 22 85 38 79 7
-2 18 7 24 20 12 27 23 31 34 13z m-10977 -70 c13 -41 4 -77 -11 -42 -6 14 -7
12 -3 -8 3 -16 1 -28 -5 -28 -5 0 -10 13 -10 29 0 17 -4 33 -10 36 -5 3 -10 1
-10 -5 0 -6 -5 -8 -12 -4 -11 7 -9 -11 8 -76 4 -14 3 -22 -1 -18 -5 4 -14 3
-22 -3 -9 -8 -13 -8 -13 -1 0 15 -29 42 -46 42 -8 0 -14 -7 -14 -16 0 -8 -5
-12 -11 -8 -6 3 -15 0 -20 -7 -6 -10 -8 -7 -8 11 2 31 16 90 18 71 2 -20 28 4
51 48 18 34 19 34 20 11 1 -14 4 -19 7 -12 2 6 9 12 14 12 4 0 6 -7 3 -15 -4
-8 -2 -15 3 -15 16 0 33 23 33 44 0 18 2 18 13 6 7 -8 19 -32 26 -52z m10040
3 c6 13 10 17 10 9 1 -9 -6 -25 -14 -37 -8 -12 -12 -29 -9 -38 6 -13 9 -14 16
-3 5 8 6 4 2 -13 -3 -15 -1 -30 5 -33 15 -9 1 -38 -15 -32 -8 3 -14 -1 -14 -9
0 -8 6 -15 13 -16 6 0 3 -4 -8 -8 -23 -10 -35 3 -35 39 0 39 -16 10 -28 -50
-7 -38 -7 -59 0 -67 7 -9 7 -13 -1 -13 -6 0 -11 -6 -11 -14 0 -8 -3 -17 -8
-20 -4 -2 -6 13 -4 34 2 21 -1 41 -7 44 -6 4 -11 23 -11 42 0 19 -4 34 -10 34
-5 0 -10 -5 -10 -11 0 -5 -4 -8 -9 -5 -5 3 -15 -9 -22 -27 l-13 -32 -3 26 c-3
20 -10 27 -27 27 -19 0 -26 -9 -35 -39 -7 -22 -16 -39 -21 -39 -13 0 -13 7 2
33 6 12 13 35 15 52 2 16 6 41 8 55 2 14 4 31 4 38 1 7 6 10 11 7 7 -4 9 3 5
22 -5 25 -4 26 4 6 6 -13 15 -23 21 -23 6 0 10 -6 9 -12 -4 -34 2 -78 11 -78
6 0 10 17 8 40 -1 22 2 43 7 47 4 5 5 0 2 -9 -7 -20 18 -46 26 -26 3 7 6 4 6
-7 1 -17 3 -17 11 -5 8 13 10 13 10 -2 0 -9 4 -19 8 -22 4 -2 7 18 6 45 -2 27
2 49 7 49 5 0 9 -8 9 -17 0 -16 2 -16 11 -3 8 11 9 8 4 -13 -3 -17 -2 -26 4
-23 5 3 14 -6 19 -21 l10 -28 1 27 c1 14 -5 28 -11 31 -10 3 -10 7 1 20 13 16
12 29 -4 72 -7 17 -5 17 13 -4 l22 -24 9 24z m1405 -41 c-5 -42 -3 -60 5 -60
6 0 11 7 11 15 0 19 36 20 47 1 4 -7 18 -18 31 -25 23 -12 31 -33 10 -28 -8 1
-11 -13 -11 -43 1 -25 -1 -37 -3 -27 -4 12 -12 16 -25 12 -14 -5 -19 -2 -19
14 0 11 5 23 10 26 12 8 13 45 1 45 -5 0 -15 -8 -22 -17 -8 -9 -9 -14 -3 -10
8 4 9 -2 6 -21 -4 -19 -7 -22 -10 -10 -3 14 -6 15 -15 5 -26 -27 -49 -80 -56
-125 -3 -26 -9 -40 -12 -32 -3 8 -1 45 5 81 9 50 9 66 0 62 -14 -5 -25 34 -18
64 4 13 11 20 20 16 10 -4 14 3 14 22 0 14 4 24 10 20 5 -3 12 12 16 35 10 62
16 48 8 -20z m-2146 -61 c4 11 6 11 13 0 6 -11 9 -9 9 7 0 12 6 27 14 33 11 9
13 7 10 -11 -2 -13 -5 -32 -6 -42 -2 -10 3 -21 10 -23 6 -3 12 2 12 11 0 9 5
16 10 16 6 0 10 9 10 20 0 11 5 20 11 20 11 0 10 -19 -7 -85 -6 -25 -5 -26 13
-16 22 11 41 63 25 69 -5 1 -7 15 -4 30 5 24 6 24 13 7 6 -19 8 -18 18 5 9 23
10 21 9 -18 -1 -23 3 -47 10 -54 9 -9 12 -7 12 11 0 12 4 19 10 16 6 -3 10 -1
10 5 0 6 -7 13 -15 16 -25 10 -17 22 11 16 18 -3 25 -1 20 6 -3 6 1 9 9 8 22
-3 46 -41 39 -60 -3 -9 -2 -16 4 -16 6 0 15 12 21 28 10 24 11 22 6 -17 -7
-56 -16 -70 -27 -42 -4 12 -13 19 -19 16 -8 -5 -8 -10 0 -18 6 -6 11 -22 11
-35 0 -13 4 -20 10 -17 6 3 7 -1 4 -10 -6 -14 -8 -14 -20 2 -9 12 -13 14 -14
5 0 -7 -5 -10 -11 -6 -6 3 -9 19 -7 35 3 15 1 26 -4 23 -4 -3 -8 -12 -8 -20 0
-8 -4 -14 -10 -14 -5 0 -10 5 -10 11 0 5 -4 7 -10 4 -5 -3 -10 0 -10 7 0 7 -8
22 -17 33 -15 19 -15 19 -9 -12 3 -18 1 -33 -3 -33 -5 0 -12 -14 -16 -30 -9
-40 -26 -28 -19 13 5 30 5 31 -10 13 -9 -12 -16 -14 -16 -7 0 19 -28 43 -41
35 -6 -3 -9 -19 -5 -35 3 -15 1 -31 -4 -34 -6 -3 -10 5 -10 19 0 14 -5 26 -11
26 -7 0 -8 12 -4 33 4 17 4 29 0 25 -5 -4 -14 -3 -22 3 -10 9 -13 7 -14 -7 -1
-11 -1 -22 0 -26 0 -4 -8 -22 -20 -40 l-21 -33 7 30 c5 24 4 28 -6 18 -24 -24
-29 -13 -24 48 5 68 24 115 25 64 l1 -30 14 25 c8 14 15 41 16 60 1 29 3 24
16 -30 9 -36 18 -59 21 -51z m387 34 c12 30 24 18 18 -18 -7 -42 1 -45 21 -7
18 31 22 9 6 -32 -6 -17 -6 -26 0 -26 6 0 10 9 10 20 0 11 5 20 10 20 6 0 10
7 10 16 0 14 2 14 15 0 18 -17 20 -30 3 -20 -8 5 -9 2 -5 -9 3 -10 2 -17 -3
-17 -6 0 -10 -15 -10 -32 0 -77 -29 -109 -31 -35 l-1 42 -17 -52 c-16 -54 -37
-75 -25 -27 5 18 3 25 -3 21 -15 -9 -26 23 -13 38 7 8 5 17 -8 29 -10 9 -18
26 -16 39 1 12 3 36 4 52 l1 30 14 -25 c12 -22 14 -23 20 -7z m-1009 -82 l24
-24 0 22 c0 12 4 20 9 17 5 -4 12 0 14 6 3 8 6 6 6 -4 1 -11 9 -18 22 -18 14
0 19 5 16 14 -3 8 0 19 7 25 11 9 17 3 31 -26 10 -21 20 -41 22 -45 2 -4 -3
-5 -11 -2 -11 4 -16 0 -16 -12 0 -14 -3 -15 -12 -6 -10 10 -10 15 1 21 7 5 10
14 6 20 -5 9 -11 7 -21 -6 -10 -14 -13 -15 -14 -3 0 11 -3 11 -12 2 -10 -10
-10 -17 1 -35 13 -20 12 -20 -14 3 -26 24 -27 24 -21 4 4 -15 2 -24 -8 -27
-10 -4 -13 -1 -9 9 3 7 0 14 -6 14 -6 0 -11 -5 -11 -12 0 -6 -3 -8 -7 -5 -3 4
-13 1 -21 -6 -13 -10 -14 -8 -8 18 4 20 3 25 -3 16 -6 -9 -18 -11 -34 -7 -18
4 -27 1 -31 -11 -4 -10 -10 -13 -16 -7 -11 11 -1 96 11 88 4 -2 6 -10 4 -17
-7 -17 11 -41 24 -33 8 5 8 13 0 27 -6 12 -8 23 -5 27 3 3 6 0 6 -6 0 -7 5
-12 11 -12 5 0 7 5 3 12 -5 7 -3 8 5 4 8 -5 15 0 19 15 6 22 7 22 10 4 3 -11
15 -31 28 -44z m2944 -497 c0 -3 -12 -25 -26 -49 -14 -25 -23 -49 -19 -55 3
-5 2 -10 -2 -10 -7 0 -8 -50 -2 -159 0 -13 -4 -26 -9 -30 -6 -4 -10 -20 -10
-36 0 -17 -3 -46 -7 -65 -8 -33 -9 -34 -15 -10 -5 19 -11 2 -24 -67 -20 -101
-32 -124 -23 -42 7 58 2 59 -18 2 -11 -28 -14 -32 -15 -15 0 15 -4 21 -12 16
-8 -5 -9 2 -3 27 5 19 8 48 7 66 0 20 5 34 15 37 13 5 14 1 9 -24 l-6 -31 25
30 c16 18 26 43 27 65 1 32 3 34 15 18 12 -15 13 -11 9 33 -4 31 -3 41 2 25
13 -43 24 -4 12 42 l-12 42 -18 -40 c-15 -31 -19 -34 -19 -16 -1 12 3 22 8 22
13 0 32 83 21 94 -6 6 -10 21 -9 36 1 22 2 20 11 -10 l11 -35 12 30 c31 80 49
115 57 115 4 0 8 -3 8 -6z m167 -376 c1 -11 -3 -16 -9 -12 -18 12 0 -89 18
-103 10 -7 14 -20 11 -33 -3 -11 0 -35 5 -54 9 -28 8 -42 -6 -70 -15 -33 -16
-38 -1 -63 16 -28 16 -28 -1 -5 l-18 24 -18 -24 -18 -23 5 45 c2 25 -5 -1 -16
-58 -12 -57 -23 -101 -25 -99 -3 2 4 58 15 123 17 104 18 121 5 135 -8 9 -23
39 -33 66 -18 49 -18 50 0 46 15 -4 18 -1 13 11 -7 19 12 22 20 4 3 -7 3 -3 0
9 -3 13 2 33 10 45 9 12 16 30 16 39 0 22 26 20 27 -3z m-6405 -98 c26 -60 31
-69 40 -64 4 3 8 -11 8 -30 0 -19 7 -41 15 -49 20 -21 5 -30 -17 -10 -17 16
-19 14 -22 -19 -2 -21 -46 -57 -62 -51 -8 3 -14 0 -14 -7 0 -6 -5 -8 -12 -4
-14 9 -77 11 -72 3 2 -4 -3 -9 -11 -13 -17 -6 -21 19 -4 30 7 4 -2 13 -20 21
-18 9 -31 23 -31 33 0 35 -11 52 -26 39 -11 -9 -14 -8 -14 4 0 9 5 19 10 22 6
3 10 15 10 25 0 10 10 26 21 34 12 8 31 29 42 48 16 26 22 29 25 16 2 -10 6
-18 9 -18 3 0 12 8 19 18 12 15 13 15 14 1 0 -17 40 -35 40 -18 0 5 6 8 12 7
7 -2 15 8 17 22 4 21 5 22 8 5 2 -11 9 -31 15 -45z m343 -103 c-41 -79 -75
-152 -75 -162 0 -17 1 -17 20 0 11 10 18 20 15 23 -8 8 27 42 43 42 8 0 21 8
28 18 12 16 13 16 14 -4 0 -11 11 -31 25 -44 14 -13 25 -18 25 -12 0 7 -4 12
-10 12 -5 0 -10 4 -10 9 0 20 35 3 40 -20 6 -23 6 -23 18 -4 11 18 12 17 6
-10 -4 -24 -3 -27 6 -15 9 12 10 7 5 -20 l-6 -35 21 28 c12 15 27 27 33 27 7
-1 6 -6 -3 -13 -9 -7 -22 -28 -29 -47 -7 -19 -18 -45 -23 -57 -6 -12 -8 -31
-5 -42 6 -23 -3 -27 -20 -10 -9 9 -10 7 -6 -10 6 -23 -6 -28 -25 -9 -8 8 -15
9 -20 3 -4 -6 -16 -17 -26 -25 -18 -14 -19 -13 -13 3 12 32 -25 15 -50 -22
-13 -19 -23 -28 -23 -20 0 8 7 23 15 33 19 25 19 36 0 36 -22 0 -64 48 -71 79
-3 14 -7 34 -9 44 -2 9 0 15 5 12 4 -3 10 2 13 9 3 8 2 16 -2 18 -4 2 -5 23
-3 48 3 31 7 39 11 26 6 -15 15 -3 45 55 60 115 107 199 112 199 3 0 -29 -65
-71 -143z m5585 -1209 c0 -40 1 -82 1 -93 0 -16 4 -13 20 13 12 17 23 32 25
32 10 0 -2 -36 -18 -54 -20 -22 -25 -51 -7 -40 8 4 9 -1 4 -16 -6 -17 -4 -21
6 -14 10 6 10 3 -1 -11 -8 -10 -14 -20 -13 -21 1 -2 -4 -18 -12 -36 -7 -18
-11 -36 -9 -39 2 -4 4 -78 5 -165 1 -150 2 -157 16 -129 9 16 16 41 15 55 0
18 9 32 34 49 19 13 48 39 65 59 l30 34 -7 -38 c-3 -22 -11 -43 -16 -49 -7 -7
-8 -2 -3 13 8 27 2 28 -27 5 -50 -41 -68 -62 -62 -78 4 -8 2 -21 -4 -28 -5 -6
-13 -27 -17 -44 -3 -18 -11 -36 -16 -39 -6 -3 -14 -16 -19 -28 -5 -13 -6 6 -3
49 6 69 6 70 -14 53 -21 -20 -33 -23 -33 -10 0 5 11 14 25 20 23 11 25 17 24
69 l-1 58 -9 -44 c-5 -24 -11 -47 -15 -50 -4 -3 -4 5 -1 19 20 92 29 172 22
206 -6 33 -9 36 -15 19 -7 -16 -9 -13 -9 15 0 19 4 44 9 55 8 17 9 16 11 -10
1 -24 3 -26 6 -7 3 13 9 19 15 16 8 -5 9 -1 5 10 -4 10 -7 25 -7 34 0 12 -5
10 -25 -8 -14 -13 -23 -30 -20 -38 3 -8 0 -10 -7 -6 -8 5 -9 2 -5 -9 3 -10 3
-17 -2 -17 -13 0 -31 -82 -31 -143 0 -33 -6 -60 -16 -73 -15 -18 -15 -18 -10
6 3 14 8 61 12 105 3 44 10 88 16 98 7 14 5 23 -11 36 -25 22 -27 33 -6 25 8
-4 21 -1 29 5 7 6 15 9 18 6 2 -3 15 6 28 20 18 19 23 35 22 62 -2 21 -7 40
-12 43 -8 5 8 120 16 120 1 0 3 -33 4 -72z m-1420 -680 c11 30 30 44 30 22 0
-5 -5 -10 -11 -10 -5 0 -8 -3 -5 -8 2 -4 -6 -30 -20 -57 -16 -33 -24 -67 -24
-100 0 -69 0 -74 -6 -127 -4 -30 -2 -48 4 -48 6 0 12 3 14 8 2 4 26 15 53 24
50 17 50 17 25 -2 -14 -10 -42 -27 -62 -36 -38 -17 -38 -18 -40 -78 l-1 -61
-6 57 -6 58 -28 -18 c-19 -11 -40 -43 -63 -97 -20 -44 -40 -89 -44 -100 -5
-11 -32 -76 -58 -145 -64 -162 -63 -160 -56 -125 8 43 68 201 129 340 l53 120
-24 18 c-13 10 -24 23 -24 29 0 6 9 3 21 -8 l21 -19 -6 60 c-3 41 -2 50 3 30
5 -16 9 -46 10 -65 l1 -35 26 43 c14 23 27 42 29 42 7 0 -15 -52 -28 -70 -10
-12 -8 -12 13 1 24 16 25 20 28 143 2 102 0 131 -14 153 -12 21 -13 24 -1 10
15 -18 16 -17 20 10 4 26 4 25 6 -7 2 -28 4 -31 10 -15 5 11 4 33 0 50 -5 16
-9 41 -8 55 1 16 6 6 14 -25 l12 -50 13 33z m-2627 -467 c3 -43 -1 -49 -20
-30 -16 16 -37 -63 -29 -105 4 -22 3 -27 -4 -16 -8 13 -10 12 -10 -3 0 -10
-16 -34 -35 -54 -19 -20 -35 -46 -35 -57 0 -14 -3 -17 -8 -9 -6 9 -17 3 -42
-22 -32 -33 -33 -38 -41 -142 -5 -59 -13 -137 -18 -173 -6 -36 -16 -110 -22
-165 -6 -55 -13 -102 -16 -105 -3 -3 -3 18 1 45 3 28 13 122 21 210 9 88 19
192 23 232 8 70 7 74 -25 128 -18 31 -40 73 -49 93 -13 33 -13 35 0 22 9 -8
24 -33 36 -55 15 -31 19 -34 14 -12 -4 17 -2 27 5 27 6 0 12 -10 13 -22 0 -13
4 -3 9 22 7 45 7 45 6 -13 -1 -31 1 -57 5 -57 4 0 5 -6 2 -14 -3 -8 -1 -16 4
-19 14 -9 139 125 146 156 4 18 3 26 -3 22 -6 -3 1 19 14 49 13 29 21 57 17
62 -4 4 -1 4 6 0 8 -5 14 3 18 24 8 40 14 33 17 -19z m2516 -635 l1 -39 21 19
c22 19 22 19 10 -3 -14 -28 -14 -38 2 -55 14 -16 50 -67 61 -88 12 -23 -42 41
-61 73 -10 15 -22 27 -27 27 -5 0 -7 -3 -3 -6 3 -3 -7 -17 -23 -30 -34 -29
-31 -53 11 -88 16 -14 29 -31 29 -38 0 -10 2 -10 8 0 6 9 12 5 20 -13 7 -14
12 -33 12 -42 0 -13 3 -13 15 -3 16 14 20 46 6 54 -12 8 -21 46 -11 46 4 0 13
-14 20 -31 10 -23 15 -27 22 -17 7 9 8 8 4 -6 -4 -11 5 -36 22 -65 16 -25 41
-73 56 -106 16 -33 38 -70 49 -83 11 -12 15 -22 9 -22 -12 0 -28 26 -105 169
l-45 84 -14 -29 c-16 -31 -11 -130 12 -274 6 -36 11 -73 11 -83 0 -20 24 6 78
86 58 85 42 49 -22 -49 l-62 -95 -7 48 c-4 26 -10 73 -13 103 -3 30 -11 80
-17 110 -5 30 -11 72 -11 92 -1 35 -3 38 -52 53 -27 9 -56 18 -63 20 -9 3 -7
10 8 25 22 22 26 45 10 55 -6 4 -8 10 -5 15 3 4 -4 10 -15 13 -29 8 -25 22 20
71 40 43 40 45 31 87 -6 24 -10 64 -10 89 l1 45 9 -40 c4 -22 8 -58 8 -79z
m1867 47 l-7 -68 35 49 c44 61 47 54 4 -13 -31 -51 -31 -51 -12 -74 l19 -22
-22 19 -23 19 -20 -47 c-11 -26 -20 -54 -20 -61 0 -7 -4 -15 -8 -17 -4 -2 -25
-30 -45 -63 -50 -83 -86 -125 -87 -102 0 9 4 17 8 17 5 0 18 19 30 43 21 42
24 111 10 234 -3 23 -2 40 3 37 4 -2 10 15 12 38 2 31 4 24 6 -27 1 -40 10
-89 21 -115 l18 -45 23 50 c14 31 23 67 22 95 -1 31 2 39 7 25 5 -15 9 -5 15
38 10 80 19 72 11 -10z m-350 -43 c5 0 10 -20 10 -45 1 -25 -1 -45 -5 -45 -4
0 -8 -10 -8 -22 -1 -13 -5 -33 -8 -45 -3 -13 -4 -23 -2 -23 6 0 64 92 78 122
6 15 16 25 20 22 11 -6 1 -31 -33 -82 -15 -24 -25 -48 -22 -54 3 -5 -8 -22
-26 -36 -26 -23 -32 -35 -33 -73 -1 -26 -6 -45 -11 -42 -4 3 -5 -9 -1 -26 4
-20 3 -31 -4 -31 -6 0 -11 -11 -11 -24 0 -12 -5 -38 -12 -56 -8 -26 -8 -35 0
-38 8 -2 8 -8 -2 -17 -8 -8 -21 -49 -30 -92 -19 -85 -57 -205 -64 -199 -2 3 5
33 16 68 12 35 23 77 26 93 3 17 10 52 16 80 6 27 8 55 5 62 -5 15 -41 17 -50
3 -9 -15 -25 -12 -19 4 7 17 -1 21 -47 30 -36 6 -37 6 -57 -41 -17 -40 -21
-44 -21 -22 -1 30 23 94 39 104 5 3 10 0 10 -9 0 -8 12 -17 28 -20 15 -4 36
-8 47 -11 11 -2 34 -7 51 -10 28 -6 32 -4 37 22 59 270 68 331 47 318 -14 -9
-12 5 5 35 17 30 19 83 4 113 -9 20 -9 20 4 5 8 -10 18 -18 23 -18z"/>
<path d="M5530 6273 c-23 -5 -26 -107 -5 -136 10 -14 16 -16 14 -7 -1 8 -1 24
1 35 l1 20 9 -20 c8 -21 14 -14 23 30 3 17 5 15 12 -9 5 -19 4 -31 -5 -36 -9
-5 -9 -9 -1 -14 6 -4 11 -3 11 2 0 16 44 30 69 21 19 -7 22 -6 17 6 -7 20 -4
19 25 -6 22 -19 24 -19 30 -2 7 15 8 15 8 -4 1 -13 5 -23 10 -23 6 0 8 15 7
33 -2 17 -1 24 1 14 4 -14 7 -16 19 -6 11 9 14 7 14 -16 0 -23 2 -26 15 -15
10 9 15 9 15 1 0 -6 5 -11 11 -11 5 0 7 5 3 11 -4 8 0 9 15 4 17 -5 21 -2 22
17 1 23 1 23 9 -2 4 -14 8 -19 9 -12 1 17 21 15 21 -3 0 -8 5 -15 10 -15 6 0
10 5 10 10 0 7 6 7 19 0 27 -14 31 -13 31 8 0 13 2 14 9 3 7 -11 9 -11 14 0 4
9 6 8 6 -5 1 -15 4 -16 15 -7 11 9 15 8 21 -6 6 -17 7 -17 20 0 13 18 13 18
18 0 4 -17 5 -17 6 1 1 15 4 16 16 6 12 -10 15 -10 15 3 0 48 -38 64 -59 25
l-11 -23 6 23 c4 16 1 22 -10 22 -9 0 -16 5 -16 12 0 6 -3 8 -6 5 -4 -4 -2
-12 4 -20 8 -10 6 -13 -9 -13 -10 0 -19 4 -19 8 0 4 -8 5 -17 2 -17 -5 -17 -5
0 6 16 11 25 36 9 26 -5 -3 -15 4 -22 15 -19 26 -30 24 -30 -6 0 -14 -4 -25
-10 -25 -5 0 -10 9 -10 19 0 27 -39 54 -56 40 -7 -6 -19 -7 -25 -3 -7 4 -18
-1 -25 -11 -12 -17 -14 -17 -30 0 -16 16 -19 16 -29 1 -7 -9 -20 -16 -31 -16
-14 0 -15 3 -6 12 17 17 15 25 -5 25 -19 0 -44 -27 -37 -39 3 -5 0 -8 -5 -8
-6 0 -11 7 -11 15 0 8 -5 15 -11 15 -6 0 -8 8 -5 18 3 9 -6 4 -20 -13 l-26
-30 6 26 c5 24 3 26 -27 25 -17 0 -39 -2 -47 -3z"/>
<path d="M5376 6244 c-5 -13 -9 -14 -22 -4 -13 12 -14 9 -9 -21 l5 -34 -20 25
c-11 14 -20 28 -20 33 0 19 -20 4 -20 -15 -1 -21 -2 -22 -14 -6 -7 10 -16 15
-19 11 -4 -3 -7 -1 -7 6 0 7 -4 9 -10 6 -5 -3 -10 -28 -10 -55 0 -43 2 -48 20
-43 11 3 20 13 20 22 1 9 6 3 13 -13 11 -26 14 -27 26 -12 10 12 17 14 27 5
11 -9 14 -8 14 5 0 9 5 16 10 16 6 0 10 -7 10 -16 0 -14 3 -14 15 -4 9 7 15 8
15 2 0 -6 8 -9 18 -8 9 2 21 -2 25 -8 5 -6 6 4 3 24 -4 19 -13 38 -20 42 -8 4
-17 19 -20 33 -7 29 -21 33 -30 9z"/>
<path d="M1721 6208 c-1 -10 -5 -18 -11 -18 -5 0 -10 -7 -10 -15 0 -8 -4 -15
-9 -15 -4 0 -6 12 -3 28 4 22 3 25 -9 16 -8 -7 -28 -10 -45 -8 -24 3 -33 -1
-37 -15 -3 -13 -18 -20 -51 -25 -25 -4 -51 -13 -58 -19 -17 -16 -58 -13 -69 4
-7 11 -9 10 -9 -4 0 -11 -5 -17 -12 -14 -7 2 -25 -2 -40 -10 -25 -12 -28 -12
-28 3 0 13 -5 11 -24 -9 l-24 -26 -26 20 c-14 11 -30 17 -36 14 -5 -3 -10 0
-10 7 0 9 -3 9 -10 -2 -5 -8 -21 -15 -34 -15 -20 -1 -27 5 -31 27 -4 16 -11
26 -16 22 -5 -3 -9 0 -9 5 0 15 -27 14 -36 -1 -4 -7 -3 -8 4 -4 16 10 15 -5
-2 -27 -17 -22 -25 -11 -28 37 -3 35 -11 45 -23 27 -3 -5 -1 -12 5 -16 5 -3
10 -23 10 -43 0 -28 -3 -34 -11 -22 -7 11 -8 1 -5 -35 3 -27 3 -41 0 -31 -4
14 -8 15 -14 6 -4 -7 -7 5 -6 26 1 23 -4 39 -11 39 -18 0 -24 11 -25 44 -1 17
-4 28 -8 26 -4 -3 -5 -24 -3 -48 5 -38 3 -43 -17 -44 -12 -1 -29 -11 -37 -22
-18 -26 -33 -27 -33 -2 0 11 -7 26 -15 35 -8 8 -15 20 -15 26 0 7 -6 10 -14 7
-8 -3 -17 -1 -20 6 -3 7 -3 -4 0 -23 6 -29 4 -33 -7 -23 -8 6 -18 12 -24 12
-5 0 -11 9 -13 21 -3 17 -5 18 -18 6 -8 -8 -14 -21 -14 -28 0 -11 -2 -11 -9 0
-11 18 -35 11 -43 -13 -6 -19 -6 -19 -7 2 -1 12 4 25 9 28 13 8 13 35 -1 35
-5 0 -7 -5 -4 -11 10 -14 -27 -40 -41 -28 -7 5 -19 1 -32 -12 l-22 -20 -7 32
c-6 31 -7 32 -15 9 -8 -22 -9 -23 -23 -4 -10 13 -14 14 -15 5 0 -8 -6 -11 -18
-6 -39 15 -52 14 -52 -6 0 -18 -2 -17 -25 7 -14 15 -25 31 -25 35 0 5 -5 9
-11 9 -6 0 -8 -8 -4 -19 3 -11 1 -22 -5 -26 -5 -3 -10 1 -10 10 0 11 -5 15
-14 12 -10 -4 -12 1 -9 16 3 14 -3 10 -16 -13 -13 -22 -20 -29 -21 -17 0 9 -4
17 -9 17 -5 0 -12 -8 -14 -17 -4 -17 -5 -17 -6 0 -1 19 -12 22 -28 6 -8 -8
-17 -5 -32 10 -27 27 -31 26 -23 -1 5 -21 4 -22 -12 -9 -15 13 -19 13 -27 0
-6 -10 -9 -10 -9 -2 0 13 -25 13 -45 2 -14 -9 -49 -2 -53 11 -4 12 -22 3 -22
-11 0 -6 4 -7 10 -4 15 9 11 -17 -5 -39 -15 -19 -15 -19 -15 1 0 12 -4 25 -10
28 -7 4 -10 -52 -10 -160 0 -131 3 -169 14 -181 21 -21 26 -17 20 15 -3 16 -1
37 5 48 11 16 11 15 6 -7 -5 -19 -4 -22 4 -10 6 8 11 29 11 47 0 74 24 85 27
12 1 -32 8 -58 19 -70 21 -24 34 -24 34 -1 1 11 6 6 15 -13 13 -26 14 -26 9
-5 l-5 25 20 -25 c17 -21 21 -22 21 -7 0 16 2 16 25 1 24 -16 25 -16 26 7 1
13 1 27 0 31 -2 15 19 58 29 58 5 0 10 -10 11 -22 0 -13 3 -17 6 -10 2 6 9 10
14 6 5 -3 10 7 10 23 1 21 3 23 6 8 8 -33 23 -42 24 -14 1 22 1 22 10 -6 5
-16 7 -38 5 -47 -2 -10 0 -21 5 -24 5 -3 9 2 9 10 0 22 20 20 20 -1 1 -17 1
-17 14 0 19 25 26 21 26 -13 0 -16 4 -30 10 -30 5 0 7 15 4 33 -4 30 -4 31 6
7 10 -22 13 -23 23 -9 7 9 18 14 25 12 6 -3 12 0 12 5 0 6 -9 14 -20 17 -25 8
-26 21 0 28 13 3 21 -1 25 -14 6 -19 25 -17 25 2 0 6 -4 7 -10 4 -6 -3 -10 -1
-10 4 0 6 4 11 9 11 5 0 7 10 4 23 -4 16 1 13 17 -13 12 -19 18 -36 13 -37 -6
-2 -8 -15 -5 -29 2 -14 10 -23 16 -21 6 2 18 1 27 -4 10 -5 21 -2 32 11 9 11
11 20 5 22 -5 2 -8 15 -6 28 4 24 5 24 20 -9 10 -22 17 -29 21 -20 4 11 6 11
6 1 2 -22 21 -2 21 21 0 20 1 20 14 2 7 -10 11 -28 8 -39 -5 -20 -5 -20 12 -4
14 14 15 22 6 39 -17 31 -1 37 24 9 24 -27 46 -36 46 -20 0 6 7 10 15 10 10 0
15 10 15 32 0 30 1 30 14 13 8 -11 13 -24 12 -30 -2 -5 -1 -6 2 -2 2 4 9 3 16
-2 14 -12 28 -3 44 29 7 14 10 17 8 8 -6 -19 18 -43 34 -33 5 3 10 14 10 23 1
14 4 13 20 -7 16 -18 20 -20 20 -7 0 12 7 16 28 13 19 -3 31 2 40 17 12 20 13
20 6 -4 -4 -14 -9 -32 -11 -40 -4 -11 -3 -12 4 -2 5 7 17 10 26 6 12 -4 19 1
25 17 l9 22 16 -24 c19 -26 23 -19 7 12 -7 11 -7 19 -1 19 5 0 12 -6 14 -12 4
-10 8 -10 15 1 6 7 15 10 22 6 7 -4 16 -2 21 6 7 12 9 12 9 0 0 -11 3 -11 15
-1 8 7 22 10 30 6 8 -3 15 0 15 7 0 8 4 6 10 -3 5 -8 10 -10 10 -5 0 6 -5 17
-10 25 -7 11 -10 11 -10 2 0 -7 -5 -10 -11 -6 -7 4 -8 9 -1 13 5 3 12 15 15
26 4 18 5 18 6 -2 0 -12 10 -27 21 -33 16 -9 18 -8 14 5 -8 20 6 19 22 -2 12
-17 13 -16 22 7 5 14 6 32 2 40 -6 12 -3 16 12 17 15 2 19 -3 15 -18 -3 -10
-2 -17 2 -15 4 3 13 -4 21 -14 17 -24 30 -17 30 18 1 25 2 25 14 10 15 -20 36
-24 36 -8 0 6 5 17 12 24 10 10 16 9 30 -8 17 -20 19 -20 31 -4 8 10 17 15 20
11 4 -3 12 -1 19 4 7 6 21 9 31 8 12 -2 17 4 18 23 1 20 4 17 9 -13 4 -22 8
-31 9 -20 1 17 3 18 11 5 8 -13 10 -12 10 4 0 11 3 16 7 13 3 -4 11 1 18 10
11 14 13 13 18 -9 4 -14 14 -25 23 -25 13 0 15 7 11 34 -7 39 0 43 13 8 6 -16
14 -23 25 -19 8 3 15 11 15 16 0 6 7 8 15 5 11 -5 12 -1 5 19 -9 24 -9 24 15
8 15 -10 22 -23 20 -35 -2 -11 0 -17 6 -13 5 3 9 13 8 22 -4 45 3 58 46 80 25
12 45 18 45 12 0 -21 18 -9 24 15 4 14 11 23 16 20 6 -3 10 -1 10 4 0 14 -13
14 -28 -1 -9 -9 -12 -8 -12 4 0 9 -6 18 -13 21 -18 7 -41 -8 -33 -21 3 -5 -1
-13 -9 -16 -12 -4 -14 0 -9 20 6 22 4 25 -12 22 -11 -2 -23 -13 -29 -26 -14
-31 -27 -28 -14 4 11 31 7 38 -18 30 -10 -3 -22 -5 -27 -5 -5 0 -12 -5 -16
-11 -6 -9 -11 -7 -18 6 -8 16 -19 19 -56 16 -34 -3 -46 -8 -47 -21 -1 -9 -4
-6 -9 9 -5 17 -8 19 -9 8z"/>
<path d="M10865 6170 c2 -12 -2 -23 -10 -27 -8 -3 -16 -15 -16 -27 -1 -16 -2
-17 -6 -3 -2 9 -9 17 -14 17 -5 0 -8 10 -6 23 2 12 2 16 0 10 -3 -7 -11 -13
-19 -13 -7 0 -21 -11 -29 -24 -13 -19 -14 -29 -6 -45 11 -20 41 -19 41 2 0 6
3 7 6 4 4 -4 1 -14 -7 -23 -12 -15 -11 -16 10 -9 16 5 26 3 32 -6 6 -10 9 -11
9 -1 0 6 5 12 11 12 5 0 7 -6 4 -12 -4 -7 0 -5 7 4 10 11 19 14 29 7 10 -6 17
-2 26 19 l12 27 2 -35 c1 -19 2 -44 1 -55 0 -12 2 -14 5 -6 5 11 7 11 15 0 6
-10 7 -7 3 9 -4 13 -1 30 7 39 9 12 9 15 1 9 -18 -10 -16 19 2 38 16 16 20 30
6 22 -5 -3 -12 2 -15 11 -6 15 -8 14 -20 -2 -11 -16 -13 -16 -19 -2 -3 9 -2
19 3 22 6 4 10 12 10 18 0 8 -3 7 -9 -2 -5 -7 -14 -10 -20 -7 -6 4 -11 1 -12
-6 0 -7 -5 -3 -11 10 -14 28 -28 29 -23 2z"/>
<path d="M3316 6156 c6 -15 -3 -15 -78 0 -25 5 -28 3 -29 -23 -1 -23 -2 -24
-6 -5 -2 12 -8 22 -13 22 -4 0 -3 -16 3 -35 6 -21 13 -31 18 -24 4 7 19 9 34
7 18 -4 25 -2 21 7 -3 8 6 15 22 18 32 6 42 0 22 -13 -13 -8 -12 -10 3 -10 9
0 17 5 17 12 0 6 9 0 21 -13 15 -17 22 -20 28 -11 6 10 11 10 21 -3 21 -25 32
-18 25 16 l-7 32 28 -26 c15 -14 31 -24 36 -21 4 3 8 0 8 -7 0 -8 4 -8 15 1
11 9 15 9 15 1 0 -7 4 -10 9 -7 10 7 3 44 -12 63 -5 7 -13 10 -18 7 -5 -3 -9
-1 -9 4 0 7 -39 9 -47 2 -2 -2 -7 -3 -12 -4 -5 0 -12 -4 -16 -8 -4 -4 -16 -2
-26 5 -15 9 -24 9 -39 -1 -17 -10 -20 -10 -20 2 0 8 -4 18 -10 21 -5 3 -7 0
-4 -9z"/>
<path d="M231 5740 c-1 -19 -3 -50 -3 -68 -1 -33 -18 -24 -18 9 0 9 -7 22 -15
29 -25 21 -20 -69 6 -100 20 -24 21 -25 16 -2 -3 12 -1 20 4 16 5 -3 9 -15 9
-27 0 -18 2 -19 10 -7 5 8 7 24 4 35 -4 15 -1 14 10 -5 12 -20 15 -21 16 -7 0
10 4 16 9 13 17 -11 21 27 5 51 -8 14 -13 27 -11 30 3 2 13 -7 22 -21 12 -18
15 -36 11 -61 -4 -22 -3 -35 4 -35 5 0 10 12 10 26 0 23 1 24 16 10 19 -20 24
-20 24 0 0 8 -4 12 -10 9 -5 -3 -10 3 -10 14 0 27 17 27 25 1 3 -11 11 -20 16
-20 5 0 9 -6 9 -14 0 -7 6 -19 14 -25 11 -9 15 -8 20 5 4 9 4 19 1 22 -3 3 -5
-1 -5 -9 -1 -23 -29 34 -30 60 0 19 3 21 14 12 8 -6 19 -25 26 -42 7 -16 15
-27 18 -24 3 2 11 -3 18 -13 12 -15 13 -14 14 10 0 20 -4 26 -15 22 -10 -4
-15 0 -15 15 0 30 -29 83 -40 76 -6 -4 -10 -2 -10 3 0 19 -51 -2 -65 -27 -12
-21 -14 -22 -13 -6 3 43 -2 58 -14 48 -23 -17 -55 -12 -65 10 -9 19 -10 18
-12 -13z"/>
</g>
</svg>
